<?xml version="1.0" standalone="no"?>
<!DOCTYPE svg PUBLIC "-//W3C//DTD SVG 1.1//EN" "http://www.w3.org/Graphics/SVG/1.1/DTD/svg11.dtd">
<svg xmlns="http://www.w3.org/2000/svg">
<metadata>© LiveSwitch, Inc. 2023</metadata>
<defs>
<font id="liveswitch-icons-1" horiz-adv-x="1000" >
<font-face font-family="liveswitch-icons-1" font-weight="400" font-stretch="normal" units-per-em="1000" ascent="850" descent="-150" />
<missing-glyph horiz-adv-x="1000" />
<glyph glyph-name="add-plus" unicode="&#xe800;" d="M480 630c22 0 40-18 40-40v-200h200c22 0 40-18 40-40 0-22-18-40-40-40h-200v-200c0-22-18-40-40-40-22 0-40 18-40 40v200h-200c-22 0-40 18-40 40 0 22 18 40 40 40h200v200c0 22 18 40 40 40z" horiz-adv-x="960" />

<glyph glyph-name="add-to-queue" unicode="&#xe801;" d="M646 558c0 23-18 42-41 42-23 0-42-19-42-42v-83h-83c-23 0-42-19-42-42 0-23 19-41 42-41h83v-84c0-23 19-41 42-41 23 0 41 18 41 41v84h84c23 0 41 18 41 41 0 23-18 42-41 42h-84v83z m175 207c-15 2-34 2-56 2h-320c-22 0-41 0-57-2-16-1-33-4-48-12-24-12-43-31-55-55-8-15-11-32-12-48-2-16-2-35-2-57v-320c0-22 0-40 2-56 1-17 4-33 12-49 12-23 31-42 55-54 15-8 32-11 48-13 16-1 35-1 57-1h320c22 0 41 0 56 1 17 2 33 5 49 13 23 12 42 31 54 54 9 16 11 32 13 49 1 16 1 34 1 56l0 320c0 22 0 41-1 57-2 16-4 33-13 48-12 24-31 43-54 55-16 8-32 11-49 12z m-443-86c2 1 6 2 17 3 12 1 27 1 51 1h317c24 0 40 0 51-1 12-1 16-2 18-3 8-4 14-11 18-18 1-2 3-7 4-18 1-12 1-27 1-51l0-317c0-24 0-39-1-51-1-12-3-16-4-18-4-8-10-14-18-18-2-1-6-3-18-4-11-1-27-1-51-1h-317c-24 0-39 0-51 1-11 1-15 3-17 4-8 4-15 10-19 18-1 2-2 6-3 18-1 12-1 27-1 51v317c0 24 0 39 1 51 1 11 2 16 3 18 4 7 11 14 19 18z m-190-204c0 23-19 42-42 42-23 0-41-19-41-42l0-435c0-10 0-20 0-29 1-10 3-21 9-32 8-16 21-29 36-37 12-5 23-7 32-8 9-1 19-1 30-1l434 0c23 0 42 19 42 42 0 23-19 42-42 42h-433c-12 0-19 0-24 0l0 0 0 1c-1 5-1 11-1 24v433z" horiz-adv-x="1042" />

<glyph glyph-name="arrow-down-left-lg" unicode="&#xe802;" d="M820 645c17-17 17-43 0-59l-459-459 194 0c23 0 42-19 42-42 0-23-19-42-42-42l-294 0c-11 0-22 5-30 12-8 8-12 19-12 30v295c0 23 19 41 42 41 23 0 41-18 41-41v-195l460 460c16 16 42 16 58 0z" horiz-adv-x="1042" />

<glyph glyph-name="arrow-down-left-md" unicode="&#xe803;" d="M764 588c16-16 16-43 0-59l-346-346h233c23 0 41-18 41-41 0-23-18-42-41-42h-334c-23 0-41 19-41 42v333c0 23 18 42 41 42 23 0 42-19 42-42v-233l346 346c16 16 42 16 59 0z" horiz-adv-x="1042" />

<glyph glyph-name="arrow-down-left-sm" unicode="&#xe804;" d="M722 546c16-16 16-42 0-59l-262-262h149c23 0 42-19 42-42 0-23-19-41-42-41h-250c-23 0-42 18-42 41v250c0 23 19 42 42 42 23 0 42-19 42-42v-149l262 262c16 16 43 16 59 0z" horiz-adv-x="1042" />

<glyph glyph-name="arrow-down-md" unicode="&#xe805;" d="M526 683c23 0 41-18 41-41v-483l179 179c17 16 43 16 59 0 17-16 17-43 0-59l-250-250c-16-16-42-16-59 0l-250 250c-16 16-16 43 0 59 17 16 43 16 59 0l179-179v483c0 23 19 41 42 41z" horiz-adv-x="1042" />

<glyph glyph-name="arrow-down-lg" unicode="&#xe806;" d="M526 767c23 0 41-19 41-42v-649l138 137c16 16 42 16 59 0 16-16 16-43 0-59l-209-209c-16-16-42-16-59 0l-208 209c-16 16-16 43 0 59 16 16 43 16 59 0l137-137v649c0 23 19 42 42 42z" horiz-adv-x="1042" />

<glyph glyph-name="arrow-down-right-lg" unicode="&#xe807;" d="M231 645c-16-17-16-43 0-59l459-459-194 0c-23 0-41-19-41-42 0-23 18-42 41-42l295 0c11 0 22 5 29 12 8 8 13 19 13 30v294c0 23-19 42-42 42-23 0-42-19-42-42v-194l-459 460c-16 16-43 16-59 0z" horiz-adv-x="1042" />

<glyph glyph-name="arrow-down-right-md" unicode="&#xe808;" d="M288 588c-16-16-16-43 0-59l346-346h-233c-23 0-42-18-42-41 0-23 19-42 42-42h333c23 0 42 19 42 42v333c0 23-19 42-42 42-23 0-42-19-42-42v-233l-345 346c-16 16-43 16-59 0z" horiz-adv-x="1042" />

<glyph glyph-name="arrow-down-right-sm" unicode="&#xe809;" d="M330 546c-17-16-17-42 0-59l262-262h-150c-23 0-41-19-41-42 0-23 18-41 41-41h250c23 0 42 18 42 41v250c0 23-19 42-42 42-23 0-41-19-41-42v-149l-262 262c-17 16-43 16-59 0z" horiz-adv-x="1042" />

<glyph glyph-name="arrow-down-sm" unicode="&#xe80a;" d="M526 600c23 0 41-19 41-42v-316l96 96c16 16 43 16 59 0 16-16 16-43 0-59l-167-167c-16-16-42-16-59 0l-166 167c-17 16-17 43 0 59 16 16 42 16 59 0l95-96v316c0 23 19 42 42 42z" horiz-adv-x="1042" />

<glyph glyph-name="arrow-left-lg" unicode="&#xe80b;" d="M942 350c0 23-18 42-41 42l-650 0 138 137c16 16 16 43 0 59-17 16-43 16-59 0l-209-208c-16-17-16-43 0-59l209-209c16-16 42-16 59 0 16 17 16 43 0 59l-138 137 650 0c23 0 41 19 41 42z" horiz-adv-x="1042" />

<glyph glyph-name="arrow-left-md" unicode="&#xe80c;" d="M859 350c0 23-19 42-42 42l-482 0 179 179c16 16 16 42 0 59-17 16-43 16-59 0l-250-250c-17-17-17-43 0-59l250-250c16-17 42-17 59 0 16 16 16 42 0 59l-179 178h482c23 0 42 19 42 42z" horiz-adv-x="1042" />

<glyph glyph-name="arrow-left-sm" unicode="&#xe80d;" d="M776 350c0 23-19 42-42 42l-316 0 96 95c16 17 16 43 0 59-17 16-43 16-59 0l-167-166c-16-17-16-43 0-59l167-167c16-16 42-16 59 0 16 16 16 43 0 59l-96 95 316 0c23 0 42 19 42 42z" horiz-adv-x="1042" />

<glyph glyph-name="arrow-right-lg" unicode="&#xe80e;" d="M109 350c0 23 19 42 42 42l649 0-137 137c-16 16-16 43 0 59 16 16 43 16 59 0l208-208c17-17 17-43 0-59l-208-209c-16-16-43-16-59 0-16 17-16 43 0 59l137 137-649 0c-23 0-42 19-42 42z" horiz-adv-x="1042" />

<glyph glyph-name="arrow-right-md" unicode="&#xe80f;" d="M192 350c0 23 19 42 42 42l483 0-179 179c-16 16-16 42 0 59 16 16 43 16 59 0l250-250c16-17 16-43 0-59l-250-250c-16-17-43-17-59 0-16 16-16 42 0 59l179 178h-483c-23 0-42 19-42 42z" horiz-adv-x="1042" />

<glyph glyph-name="arrow-right-sm" unicode="&#xe810;" d="M276 350c0 23 18 42 41 42l317 0-96 95c-16 17-16 43 0 59 16 16 43 16 59 0l167-166c16-17 16-43 0-59l-167-167c-16-16-43-16-59 0-16 16-16 43 0 59l96 95-317 0c-23 0-41 19-41 42z" horiz-adv-x="1042" />

<glyph glyph-name="arrow-up-left-lg" unicode="&#xe811;" d="M820 55c17 17 17 43 0 59l-459 460 194 0c23 0 42 18 42 41 0 23-19 42-42 42l-294 0c-11 0-22-5-30-12-8-8-12-19-12-30v-294c0-23 19-42 42-42 23 0 41 19 41 42v194l460-460c16-16 42-16 58 0z" horiz-adv-x="1042" />

<glyph glyph-name="arrow-up-left-md" unicode="&#xe812;" d="M764 112c16 17 16 43 0 59l-346 346h233c23 0 41 18 41 41 0 23-18 42-41 42h-334c-23 0-41-19-41-42v-333c0-23 18-42 41-42 23 0 42 19 42 42v233l346-346c16-16 42-16 59 0z" horiz-adv-x="1042" />

<glyph glyph-name="arrow-up-left-sm" unicode="&#xe813;" d="M722 154c16 16 16 43 0 59l-262 262h149c23 0 42 19 42 42 0 23-19 41-42 41h-250c-23 0-42-18-42-41v-250c0-23 19-42 42-42 23 0 42 19 42 42v149l262-262c16-16 43-16 59 0z" horiz-adv-x="1042" />

<glyph glyph-name="arrow-up-lg" unicode="&#xe814;" d="M526-67c23 0 41 19 41 42v649l138-137c16-16 42-16 59 0 16 17 16 43 0 59l-209 209c-16 16-42 16-59 0l-208-209c-16-16-16-42 0-59 16-16 43-16 59 0l137 137v-649c0-23 19-42 42-42z" horiz-adv-x="1042" />

<glyph glyph-name="arrow-up-md" unicode="&#xe815;" d="M526 17c23 0 41 18 41 41v483l179-179c17-16 43-16 59 0 17 17 17 43 0 59l-250 250c-16 16-42 16-59 0l-250-250c-16-16-16-42 0-59 17-16 43-16 59 0l179 179v-483c0-23 19-41 42-41z" horiz-adv-x="1042" />

<glyph glyph-name="arrow-up-right-lg" unicode="&#xe816;" d="M231 55c-16 17-16 43 0 59l459 460-194 0c-23 0-41 18-41 41 0 23 18 42 41 42l295 0c11 0 22-5 29-12 8-8 13-19 13-30v-294c0-23-19-42-42-42-23 0-42 19-42 42v194l-459-460c-16-16-43-16-59 0z" horiz-adv-x="1042" />

<glyph glyph-name="arrow-up-right-md" unicode="&#xe817;" d="M288 112c-16 17-16 43 0 59l346 346h-233c-23 0-42 18-42 41 0 23 19 42 42 42h333c23 0 42-19 42-42v-333c0-23-19-42-42-42-23 0-42 19-42 42v233l-345-346c-16-16-43-16-59 0z" horiz-adv-x="1042" />

<glyph glyph-name="arrow-up-right-sm" unicode="&#xe818;" d="M330 154c-17 16-17 43 0 59l262 262h-150c-23 0-41 19-41 42 0 23 18 41 41 41h250c23 0 42-18 42-41v-250c0-23-19-42-42-42-23 0-41 19-41 42v149l-262-262c-17-16-43-16-59 0z" horiz-adv-x="1042" />

<glyph glyph-name="arrow-up-sm" unicode="&#xe819;" d="M526 100c23 0 41 19 41 42v316l96-96c16-16 43-16 59 0 16 17 16 43 0 59l-167 167c-16 16-42 16-59 0l-166-167c-17-16-17-42 0-59 16-16 42-16 59 0l95 96v-316c0-23 19-42 42-42z" horiz-adv-x="1042" />

<glyph glyph-name="arrows-left-right" unicode="&#xe81a;" d="M348 658c16-15 16-41 0-56l-51-52h463c22 0 40-18 40-40 0-22-18-40-40-40h-463l51-52c16-15 16-41 0-56-15-16-41-16-56 0l-120 120c-16 15-16 41 0 56l120 120c15 16 41 16 56 0z m264-320c15 16 41 16 56 0l120-120c16-15 16-41 0-56l-120-120c-15-16-41-16-56 0-16 15-16 41 0 56l51 52h-463c-22 0-40 18-40 40 0 22 18 40 40 40h463l-51 52c-16 15-16 41 0 56z" horiz-adv-x="960" />

<glyph glyph-name="arrows-up-down" unicode="&#xe81b;" d="M320 670c22 0 40-18 40-40v-463l52 51c15 16 41 16 56 0 16-15 16-41 0-56l-120-120c-15-16-41-16-56 0l-120 120c-16 15-16 41 0 56 15 16 41 16 56 0l52-51v463c0 22 18 40 40 40z m292-12c15 16 41 16 56 0l120-120c16-15 16-41 0-56-15-16-41-16-56 0l-52 51v-463c0-22-18-40-40-40-22 0-40 18-40 40v463l-52-51c-15-16-41-16-56 0-16 15-16 41 0 56l120 120z" horiz-adv-x="960" />

<glyph glyph-name="audio-mic-slash" unicode="&#xe81c;" d="M162 737c-19 14-45 9-58-9-14-19-10-45 9-58l769-554c19-14 45-10 58 9 14 19 10 45-9 58l-143 103c7 24 10 49 10 75 0 20-16 35-35 35-20 0-36-15-36-35 0-10 0-20-2-30l-52 38v231c0 80-65 145-145 145-79 0-144-65-144-145v-23l-222 160z m366-575c40 0 76 11 107 31l61-44c-37-29-83-49-132-56v-56h85c20 0 36-16 36-35 0-20-16-36-36-36h-241c-20 0-36 16-36 36 0 19 16 35 36 35h85v56c-132 18-234 131-234 268 0 20 15 35 35 35 19 0 35-15 35-35 0-110 89-199 199-199z m59 66c-18-8-38-13-59-13-79 0-144 65-144 145v14l203-146z" horiz-adv-x="1042" />

<glyph glyph-name="audio-mic" unicode="&#xe81d;" d="M666 354c0-80-64-144-144-144-80 0-144 64-144 144v241c0 80 64 144 144 144 80 0 144-64 144-144v-241z m-343 2c0 19-16 35-35 35-20 0-36-16-36-35 0-137 102-251 235-268v-56h-86c-19 0-35-16-35-36 0-19 16-35 35-35h242c19 0 35 16 35 35 0 20-16 36-35 36h-86v56c133 17 235 131 235 268 0 19-16 35-36 35-19 0-35-16-35-35 0-110-89-199-199-199-110 0-199 89-199 199z" horiz-adv-x="1042" />

<glyph glyph-name="bell-alt" unicode="&#xe81e;" d="M866 186c-29 32-86 80-86 238 0 117-82 212-195 237v32c0 26-22 49-48 49-27 0-49-23-49-49v-32c-113-25-196-120-196-237 0-158-56-206-85-238-10-9-14-21-13-32 0-26 19-49 49-49h586c31 0 49 23 51 49 0 11-5 23-14 32z m-569-7c53 68 69 160 69 245 0 93 76 171 171 171 93 0 172-78 172-171 0-84 13-176 67-245h-479z m240-221c54 0 97 43 97 98h-195c0-55 43-98 98-98z" horiz-adv-x="1042" />

<glyph glyph-name="bell-slash-alt" unicode="&#xe81f;" d="M824 194l0 0c2-3 5-5 7-8 0 0 0 0 1-1l107-77c19-14 23-40 10-58-14-19-40-23-58-10l-827 596c-19 13-23 39-9 58 13 18 39 23 58 9l190-137c36 47 88 81 150 95v32c0 26 21 49 49 49 26 0 47-23 47-49v-32c113-25 196-120 196-237 0-146 48-198 79-230z m-461 329l325-234c-11 44-15 90-15 135 0 93-78 171-171 171-58 0-108-29-139-72z m-107-128c-6-124-49-171-78-201-2-3-5-5-7-8-9-9-14-21-12-32 0-26 18-49 49-49h450l-102 74h-294c36 47 55 106 63 166l-69 50z m246-437c53 0 96 43 96 98h-194c0-55 43-98 98-98z" horiz-adv-x="1042" />

<glyph glyph-name="bell-slash" unicode="&#xe820;" d="M862 165l96-70c19-13 23-39 10-58-14-18-40-23-58-9l-108 77h-1l-519 374c0 0 0 0 1 1l-200 143c-19 14-23 40-9 58 13 19 39 23 58 10l185-133c35 52 90 89 155 103v32c0 27 22 49 49 49 27 0 49-22 49-49v-32c112-23 195-119 195-237 0-139 51-222 97-259z m-243-109c0-54-44-98-98-98-54 0-98 44-98 98h196z m40 49l-384 277c-9-115-51-160-78-188-2-3-4-5-6-7-9-9-13-21-13-33 0-25 20-49 49-49h432z" horiz-adv-x="1042" />

<glyph glyph-name="bell" unicode="&#xe821;" d="M505-42c54 0 97 44 97 98h-195c0-54 44-98 98-98z m329 229c-29 32-85 80-85 237 0 118-83 214-195 237v32c0 27-22 49-49 49-27 0-49-22-49-49v-32c-113-23-196-119-196-237 0-157-55-205-85-237-9-9-13-21-13-33 0-25 20-49 49-49h587c29 0 49 24 49 49 0 12-4 24-13 33z" horiz-adv-x="1042" />

<glyph glyph-name="building-exit" unicode="&#xe822;" d="M301 808c-17 0-34 0-47-1-16-2-33-8-48-22-14-15-19-32-21-47-2-14-2-30-2-47l0-719h-15c-22 0-40-18-40-40 0-22 18-40 40-40h696c22 0 40 18 40 40 0 22-18 40-40 40h-14l0 98c-23-19-53-25-80-16v-82h-192v139c0 13-10 24-24 24h-76c-13 0-24-11-24-24v-139h-191v716c0 20 0 31 1 39l0 0 0 0c8 1 19 1 39 1h427c20 0 31 0 38-1l0 0 1 0c1-8 1-19 1-39v-142c27 8 57 3 80-17l0 162c0 17 0 33-2 47-2 15-7 32-22 47-14 14-32 20-47 22-14 1-30 1-47 1h-431z m59-210c-13 0-24-11-24-24v-72c0-14 11-24 24-24h72c14 0 24 10 24 24v72c0 13-10 24-24 24h-72z m-24-264c0 13 11 24 24 24h72c14 0 24-11 24-24v-72c0-13-10-24-24-24h-72c-13 0-24 11-24 24v72z m264 264c-13 0-24-11-24-24v-72c0-14 11-24 24-24h72c13 0 24 10 24 24v72c0 13-11 24-24 24h-72z m18-254c-24 0-44-20-44-44 0-24 20-44 44-44l219 0-56-57c-17-17-17-44 0-62 17-17 44-17 62 0l131 132c17 17 17 45 0 62l-131 131c-18 17-45 17-62 0-17-17-17-45 0-62l56-56h-219z" horiz-adv-x="1042" />

<glyph glyph-name="caret-down-md" unicode="&#xe824;" d="M304 463c16 16 43 16 59 0l137-137 137 137c17 16 43 16 59 0 16-16 16-43 0-59l-166-167c-17-16-43-16-59 0l-167 167c-16 16-16 43 0 59z" horiz-adv-x="1000" />

<glyph glyph-name="caret-down-sm" unicode="&#xe825;" d="M346 442c16 16 42 16 59 0l95-96 96 96c16 16 42 16 59 0 16-16 16-43 0-59l-125-125c-17-16-43-16-59 0l-125 125c-17 16-17 43 0 59z" horiz-adv-x="1000" />

<glyph glyph-name="caret-left-md" unicode="&#xe826;" d="M613 546c16-16 16-42 0-59l-137-137 137-137c16-16 16-43 0-59-16-16-43-16-59 0l-167 167c-16 16-16 42 0 59l167 166c16 16 43 16 59 0z" horiz-adv-x="1000" />

<glyph glyph-name="caret-left-sm" unicode="&#xe827;" d="M618 196c16 16 16 42 0 59l-96 95 96 96c16 16 16 42 0 59-16 16-43 16-59 0l-125-125c-16-17-16-43 0-59l125-125c16-17 43-17 59 0z" horiz-adv-x="1042" />

<glyph glyph-name="caret-right-md" unicode="&#xe828;" d="M387 546c17 16 43 16 59 0l167-166c16-17 16-43 0-59l-167-167c-16-16-42-16-59 0-16 16-16 43 0 59l137 137-137 137c-16 17-16 43 0 59z" horiz-adv-x="1000" />

<glyph glyph-name="caret-right-sm" unicode="&#xe829;" d="M434 196c-16 16-16 42 0 59l95 95-95 96c-16 16-16 42 0 59 16 16 43 16 59 0l125-125c16-17 16-43 0-59l-125-125c-16-17-43-17-59 0z" horiz-adv-x="1042" />

<glyph glyph-name="caret-up-md" unicode="&#xe82a;" d="M471 463c16 16 42 16 59 0l166-167c16-16 16-42 0-59-16-16-42-16-59 0l-137 137-137-137c-16-16-43-16-59 0-16 17-16 43 0 59l167 167z" horiz-adv-x="1000" />

<glyph glyph-name="caret-up-sm" unicode="&#xe82b;" d="M371 258c17-16 43-16 59 0l96 96 95-96c17-16 43-16 59 0 17 16 17 43 0 59l-125 125c-16 16-42 16-59 0l-125-125c-16-16-16-43 0-59z" horiz-adv-x="1042" />

<glyph glyph-name="chat" unicode="&#xe82c;" d="M730 510c0-166-151-299-337-299-28 0-55 3-80 8 0 0-55-48-138-40-15 1-19 12-10 21 19 16 36 35 50 55-96 53-160 147-160 255 0 165 151 298 338 298 186 0 337-133 337-298z m-337-363c215 0 392 149 406 337 103-51 173-148 173-260 0-108-64-202-160-255 14-20 30-39 49-56 9-8 6-19-9-21-83-7-138 41-138 41-26-6-53-8-80-8-160 0-294 98-329 230 28-5 58-8 88-8z" horiz-adv-x="1042" />

<glyph glyph-name="check" unicode="&#xe82d;" d="M809 571c25-24 25-64 0-88l-353-354c-12-12-28-18-44-18-17 0-33 6-45 18l-176 177c-25 24-25 64 0 88 24 25 64 25 88 0l133-132 309 309c24 24 64 24 88 0z" horiz-adv-x="1000" />

<glyph glyph-name="chevron-down" unicode="&#xe82e;" d="M212 498c15 16 41 16 56 0l212-211 212 211c15 16 41 16 56 0 16-15 16-41 0-56l-240-240c-15-16-41-16-56 0l-240 240c-16 15-16 41 0 56z" horiz-adv-x="960" />

<glyph glyph-name="chevron-left-end" unicode="&#xe82f;" d="M232 590c0 22 18 40 40 40 22 0 40-18 40-40l0-480c0-22-18-40-40-40-22 0-40 18-40 40l0 480z m484 28c16-15 16-41 0-56l-211-212 211-212c16-15 16-41 0-56-15-16-41-16-56 0l-240 240c-16 15-16 41 0 56l240 240c15 16 41 16 56 0z" horiz-adv-x="960" />

<glyph glyph-name="chevron-left" unicode="&#xe830;" d="M628 618c16-15 16-41 0-56l-211-212 211-212c16-15 16-41 0-56-15-16-41-16-56 0l-240 240c-16 15-16 41 0 56l240 240c15 16 41 16 56 0z" horiz-adv-x="960" />

<glyph glyph-name="chevron-right-end" unicode="&#xe831;" d="M728 590c0 22-18 40-40 40-22 0-40-18-40-40v-480c0-22 18-40 40-40 22 0 40 18 40 40v480z m-484 28c-16-15-16-41 0-56l212-212-212-212c-16-15-16-41 0-56 15-16 41-16 56 0l240 240c16 15 16 41 0 56l-240 240c-15 16-41 16-56 0z" horiz-adv-x="960" />

<glyph glyph-name="chevron-right" unicode="&#xe832;" d="M332 618c15 16 41 16 56 0l240-240c16-15 16-41 0-56l-240-240c-15-16-41-16-56 0-16 15-16 41 0 56l211 212-211 212c-16 15-16 41 0 56z" horiz-adv-x="960" />

<glyph glyph-name="chevron-up-chevron-down" unicode="&#xe833;" d="M275 459c6-15 21-26 38-26h417c17 0 32 11 38 26 7 16 3 34-9 46l-208 208c-16 16-43 16-59 0l-208-208c-12-12-16-30-9-46z m0-218c6 16 21 26 38 26h417c17 0 32-10 38-26 7-16 3-33-9-45l-208-209c-16-16-43-16-59 0l-208 209c-12 12-16 29-9 45z" horiz-adv-x="1042" />

<glyph glyph-name="chevron-up" unicode="&#xe834;" d="M452 498c15 16 41 16 56 0l240-240c16-15 16-41 0-56-15-16-41-16-56 0l-212 211-212-211c-15-16-41-16-56 0-16 15-16 41 0 56l240 240z" horiz-adv-x="960" />

<glyph glyph-name="circle-arrow-down-alt" unicode="&#xe835;" d="M538-67c230 0 416 187 416 417 0 230-186 417-416 417-230 0-417-187-417-417 0-230 187-417 417-417z m333 417c0-184-149-333-333-333-184 0-334 149-334 333 0 184 150 333 334 333 184 0 333-149 333-333z m-179-12c-16 16-42 16-59 0l-54-54v233c0 23-18 41-41 41-23 0-42-18-42-41v-233l-54 54c-16 16-42 16-59 0-16-16-16-43 0-59l125-125c17-16 43-16 59 0l125 125c17 16 17 43 0 59z" horiz-adv-x="1042" />

<glyph glyph-name="circle-arrow-down" unicode="&#xe836;" d="M517-67c230 0 416 187 416 417 0 230-186 417-416 417-230 0-417-187-417-417 0-230 187-417 417-417z m-152 405c16 16 42 16 58 0l52-53v229c0 23 19 41 41 41 23 0 41-18 41-41v-229l53 53c16 16 42 16 58 0 16-16 16-42 0-58l-123-122c-16-16-42-16-58 0l-123 122c-16 16-16 42 0 58h1z" horiz-adv-x="1042" />

<glyph glyph-name="circle-arrow-left-alt" unicode="&#xe837;" d="M96 350c0 230 187 417 417 417 230 0 416-187 416-417 0-230-186-417-416-417-230 0-417 187-417 417z m417 333c-184 0-334-149-334-333 0-184 150-333 334-333 184 0 333 149 333 333 0 184-149 333-333 333z m-12-178c16-17 16-43 0-59l-54-54h232c23 0 42-19 42-42 0-23-19-42-42-42h-232l54-53c16-17 16-43 0-59-17-17-43-17-59 0l-125 125c-17 16-17 42 0 59l125 125c16 16 42 16 59 0z" horiz-adv-x="1042" />

<glyph glyph-name="circle-arrow-left" unicode="&#xe838;" d="M87 350c0 230 187 417 417 417 230 0 417-187 417-417 0-230-187-417-417-417-230 0-417 187-417 417z m405-152c16 16 16 42 0 58l-53 53 229 0c23 0 41 18 41 41 0 22-18 41-41 41l-229 0 53 52c16 16 16 42 0 58-16 16-41 16-57 0l-123-123c-16-16-16-41 0-57l123-123c16-16 41-16 57 0l0 0z" horiz-adv-x="1042" />

<glyph glyph-name="circle-arrow-right-alt" unicode="&#xe839;" d="M942 350c0 230-187 417-417 417-230 0-416-187-416-417 0-230 186-417 416-417 230 0 417 187 417 417z m-417 333c184 0 334-149 334-333 0-184-150-333-334-333-184 0-333 149-333 333 0 184 149 333 333 333z m12-178c-16-17-16-43 0-59l54-54h-232c-23 0-42-19-42-42 0-23 19-42 42-42h232l-54-53c-16-17-16-43 0-59 17-17 43-17 59 0l125 125c17 16 17 42 0 59l-125 125c-16 16-42 16-59 0z" horiz-adv-x="1042" />

<glyph glyph-name="circle-arrow-right" unicode="&#xe83a;" d="M946 350c0 230-187 417-417 417-230 0-416-187-416-417 0-230 186-417 416-417 230 0 417 187 417 417z m-405-152c-16 16-16 42 0 58l53 53-229 0c-22 0-41 18-41 41 0 22 19 41 41 41l229 0-53 52c-16 16-16 42 0 58 16 16 42 16 58 0l123-123c16-16 16-41 0-57l-123-123c-16-16-42-16-58 0l0 0z" horiz-adv-x="1042" />

<glyph glyph-name="circle-arrow-up-alt" unicode="&#xe83b;" d="M509 767c230 0 416-187 416-417 0-230-186-417-416-417-230 0-417 187-417 417 0 230 187 417 417 417z m333-417c0 184-149 333-333 333-184 0-334-149-334-333 0-184 150-333 334-333 184 0 333 149 333 333z m-179 12c-16-16-42-16-59 0l-54 54v-233c0-23-18-41-41-41-23 0-42 18-42 41v233l-54-54c-16-16-42-16-59 0-16 17-16 43 0 59l125 125c17 16 43 16 59 0l125-125c16-16 16-42 0-59z" horiz-adv-x="1042" />

<glyph glyph-name="circle-arrow-up" unicode="&#xe83c;" d="M500 767c-230 0-417-187-417-417 0-230 187-417 417-417 230 0 417 187 417 417 0 230-187 417-417 417z m152-405c-16-16-42-16-58 0l-53 53v-229c0-23-18-41-40-41-23 0-41 18-41 41v229l-53-53c-16-16-42-16-58 0-16 16-16 42 0 58l123 122c16 16 42 16 58 0l122-122c16-16 16-42 0-58h0z" horiz-adv-x="1042" />

<glyph glyph-name="circle-check" unicode="&#xe83d;" d="M503 686c-184 0-333-149-333-334 0-184 149-333 333-333 184 0 334 149 334 333 0 185-150 334-334 334z m-416-334c0 231 186 417 416 417 230 0 417-186 417-417 0-230-187-416-417-416-230 0-416 186-416 416z m571 113c16-16 16-42 0-59l-167-166c-16-17-43-17-59 0l-83 83c-16 16-16 43 0 59 16 16 43 16 59 0l54-54 137 137c16 17 43 17 59 0z" horiz-adv-x="1042" />

<glyph glyph-name="circle-help" unicode="&#xe83e;" d="M499 683c-184 0-333-149-333-333 0-184 149-333 333-333 184 0 334 149 334 333 0 184-150 333-334 333z m-416-333c0 230 186 417 416 417 230 0 417-187 417-417 0-230-187-417-417-417-230 0-416 187-416 417z m390 248c30 5 62 1 90-11 28-11 53-31 71-56 18-25 29-54 31-85 3-30-3-61-17-88-14-28-35-51-62-67-14-8-29-15-45-19v-5c0-23-19-42-42-42-23 0-41 19-41 42v41c0 23 18 42 41 42 16 0 31 4 44 12 13 8 23 20 30 34 7 13 10 29 9 44-1 15-6 30-15 42-9 13-22 23-36 28-14 6-30 8-45 6-15-3-29-9-41-19-12-10-20-23-25-38-7-22-31-34-53-27-21 7-33 31-26 53 9 29 27 55 50 75 23 20 52 33 82 38z m-18-456c0 23 19 41 42 41h4c23 0 42-18 42-41v-4c0-23-19-42-42-42l-4 0c-11 0-21 4-29 12-8 8-13 18-13 30v4z" horiz-adv-x="1042" />

<glyph glyph-name="circle-info" unicode="&#xe83f;" d="M504 683c-184 0-333-149-333-333 0-184 149-333 333-333 184 0 333 149 333 333 0 184-149 333-333 333z m-417-333c0 230 187 417 417 417 230 0 417-187 417-417 0-230-187-417-417-417-230 0-417 187-417 417z m373 167c0 23 19 41 42 41h4c23 0 42-18 42-41v-4c0-23-19-42-42-42l-4 0c-11 0-22 4-29 12-8 8-13 18-13 30v4z m44-84c23 0 42-18 42-41v-209c0-23-19-41-42-41-23 0-42 18-42 41v209c0 23 19 41 42 41z" horiz-adv-x="1042" />

<glyph glyph-name="circle-slash" unicode="&#xe840;" d="M240 557c-44-57-70-127-70-205 0-184 149-333 333-333 77 0 148 26 205 70l-468 468z m59 59l468-468c44 57 70 127 70 204 0 185-150 334-334 334-77 0-148-26-204-70z m-212-264c0 231 186 417 416 417 230 0 417-186 417-417 0-230-187-416-417-416-230 0-416 186-416 416z" horiz-adv-x="1042" />

<glyph glyph-name="circle-warning" unicode="&#xe841;" d="M503 686c-184 0-333-149-333-334 0-184 149-333 333-333 184 0 334 149 334 333 0 185-150 334-334 334z m-416-334c0 231 186 417 416 417 230 0 417-186 417-417 0-230-187-416-417-416-230 0-416 186-416 416z m416 190c23 0 42-19 42-42v-166c0-23-19-42-42-42-23 0-41 19-41 42v166c0 23 18 42 41 42z m-43-333c0 23 18 41 41 41h4c23 0 42-18 42-41v-4c0-12-4-22-12-30-8-8-19-12-30-12l-4 0c-23 0-41 19-41 42v4z" horiz-adv-x="1042" />

<glyph glyph-name="clock" unicode="&#xe842;" d="M563 600c0 23-19 42-42 42-23 0-41-19-41-42v-250c0-16 9-30 23-37l166-84c21-10 46-1 56 19 11 21 2 46-18 56l-144 72v224z m-42 208c-253 0-458-205-458-458 0-253 205-458 458-458 254 0 459 205 459 458 0 253-205 458-459 458z m-375-458c0 207 168 375 375 375 208 0 375-168 375-375 0-207-167-375-375-375-207 0-375 168-375 375z" horiz-adv-x="1042" />

<glyph glyph-name="code" unicode="&#xe843;" d="M388 578c16-15 16-41 0-56l-171-172 171-172c16-15 16-41 0-56-15-16-41-16-56 0l-200 200c-16 15-16 41 0 56l200 200c15 16 41 16 56 0z m184 0c15 16 41 16 56 0l200-200c16-15 16-41 0-56l-200-200c-15-16-41-16-56 0-16 15-16 41 0 56l171 172-171 172c-16 15-16 41 0 56z" horiz-adv-x="960" />

<glyph glyph-name="cog-gear" unicode="&#xe844;" d="M530 788c39 0 73-28 80-65l4-17c13-65 82-104 147-82l17 5c37 13 78-2 98-35l30-50c19-33 12-75-18-100l-13-11c-52-44-52-122 0-166l13-11c30-25 37-67 18-100l-30-50c-20-33-61-48-98-35l-17 6c-65 21-134-18-147-83l-4-17c-7-37-41-65-80-65h-60c-39 0-73 28-80 65l-4 17c-12 65-82 104-147 83l-17-6c-37-13-78 2-98 35l-30 50c-19 33-12 75 18 100l13 11c52 44 52 122 0 166l-13 11c-30 25-37 67-18 100l30 50c20 33 61 48 98 35l17-5c65-22 135 17 147 82l4 17c7 37 41 65 80 65h60z m-30-563c69 0 125 56 125 125 0 69-56 125-125 125-69 0-125-56-125-125 0-69 56-125 125-125z" horiz-adv-x="1000" />

<glyph glyph-name="cogs-integration" unicode="&#xe845;" d="M357 699c31 0 58-21 64-51l3-13c10-53 66-84 118-67l13 5c30 10 62-2 78-28l24-40c16-27 10-60-14-80l-11-9c-41-35-41-97 0-132l11-9c24-20 30-53 14-80l-24-40c-16-26-48-38-78-28l-13 5c-52 17-108-14-118-66l-3-14c-6-30-33-51-64-51h-48c-31 0-58 21-64 51l-3 14c-10 52-66 83-118 66l-13-5c-30-10-63 2-78 28l-24 40c-16 27-10 60 14 80l10 9c42 35 42 97 0 132l-10 9c-24 20-30 53-14 80l24 40c15 26 48 38 78 28l13-5c52-17 108 14 118 67l3 13c6 30 33 51 64 51h48z m-24-449c55 0 100 45 100 100 0 55-45 100-100 100-55 0-100-45-100-100 0-55 45-100 100-100z m416 505c14 8 30 5 40-6l5-5c17-20 48-20 66 1l4 5c10 11 27 14 40 7l20-11c13-8 19-23 14-37l-2-7c-10-25 6-51 32-56l7-1c15-3 25-15 25-30l0-23c0-15-11-28-27-31l-6-2c-27-5-43-32-34-57l2-6c5-14-1-30-15-38l-20-11c-13-8-30-5-40 6l-4 5c-17 20-49 19-66-1l-5-5c-10-12-27-15-40-7l-20 11c-13 7-19 23-13 37l2 6c9 25-6 52-32 57l-7 1c-15 2-26 15-26 30l1 23c0 15 11 28 26 31l7 1c26 6 42 33 34 57l-3 7c-4 14 2 30 15 37l20 12z m100-196c24 13 32 43 18 66-13 24-43 32-67 18-23-13-31-43-18-67 14-23 44-31 67-17z m-100-306c14 8 30 5 40-6l5-5c17-20 48-19 66 1l4 5c10 12 27 15 40 7l20-11c13-7 19-23 14-37l-2-6c-10-25 6-52 32-56l7-2c15-2 25-15 25-30l0-23c0-15-11-28-27-31l-6-1c-27-6-43-32-34-57l2-7c5-14-1-30-15-37l-20-12c-13-8-30-5-40 6l-4 5c-17 20-49 20-66-1l-5-5c-10-11-27-14-40-7l-20 11c-13 8-19 23-13 37l2 7c9 25-6 51-32 56l-7 1c-15 3-26 16-26 31l1 22c0 15 11 28 26 31l7 2c26 5 42 32 34 57l-3 6c-4 14 2 30 15 38l20 11z m100-196c24 13 32 43 18 67-13 23-43 31-67 18-23-14-31-44-18-67 14-24 44-32 67-18z" horiz-adv-x="1000" />

<glyph glyph-name="contacts-alt" unicode="&#xe846;" d="M235 759c0 21 17 38 38 38h516c21 0 38-17 38-38 0-20-17-37-38-37h-517c-20 0-37 17-37 37z m296-427c54 0 99 43 99 99 0 55-45 100-99 100-56 0-99-45-99-100 0-56 43-99 99-99z m-146-163h290c21 0 37 13 37 31v31c0 52-50 94-110 94h-8c-19-9-40-13-63-13l-10 1c-8 0-16 1-24 2-11 2-21 6-31 10h-8c-60 0-109-42-109-94v-31c0-18 17-31 36-31z m-177 490h645c41 0 75-34 75-75v-468c0-24-11-44-28-58-13-11-29-17-47-17h-645c-41 0-74 33-74 75v468c0 41 33 75 74 75z m0-75v-468h645v468h-645z m38-617c-7-7-11-16-11-26 0-21 17-38 37-38h517c21 0 38 17 38 38 0 20-17 37-38 37h-516c-11 0-20-4-27-11z" horiz-adv-x="1042" />

<glyph glyph-name="contacts" unicode="&#xe847;" d="M225 749c0 21 17 37 37 37h520c21 0 38-16 38-37 0-9-4-18-10-24-2-3-5-5-9-7-5-3-12-5-19-5h-520c-20 0-37 16-37 36z m-27-98h649c41 0 75-33 75-72v-457c0-9-2-17-4-25-3-6-6-12-10-18-3-4-6-7-9-10l-5-4c-13-10-29-16-47-16h-649c-42 0-75 32-75 73v457c0 39 33 72 75 72z m324-304c49 0 89 38 89 86 0 48-40 87-89 87-50 0-89-39-89-87 0-48 39-86 89-86z m-142-167h283c12 0 23 4 29 11 5 5 8 11 8 18v30c0 49-49 89-108 89h-8c-19-9-39-12-62-12l-9 0c-9 0-16 1-24 2-11 2-21 5-30 10h-8c-59 0-106-40-106-89v-30c0-17 16-29 35-29z m-155-229c0 10 4 19 11 25 6 7 16 11 26 11h520c12 0 23-5 30-14 5-6 8-14 8-22 0-21-17-37-38-37h-520c-20 0-37 16-37 37z" horiz-adv-x="1042" />

<glyph glyph-name="debug" unicode="&#xe84a;" d="M864 246c28 0 52 22 53 51 1 29-23 53-52 53h-92v96l76 76c21 20 21 53 0 73-20 21-53 21-73 0l-89-89h-374l-89 89c-20 21-53 21-73 0-21-20-21-53 0-73l76-76v-96h-92c-29 0-52-24-52-53 1-29 25-51 54-51h90v-26c0-36 8-69 22-100l-98-98c-21-20-21-53 0-73 20-21 53-21 73 0l89 89c104-105 270-105 374 0l89-89c20-21 53-21 73 0 21 20 21 53 0 73l-98 98c15 31 22 64 22 100v26h91z m-545 338c0 101 82 183 183 183 100 0 182-82 182-183h-365z m302-243l-74-74 74-74c5-6 5-15 0-20l-27-27c-6-6-15-6-20 0l-74 74-74-74c-5-6-14-6-20 0l-27 27c-5 5-5 14 0 20l74 74-74 74c-5 5-5 14 0 20l27 27c6 5 15 5 20 0l74-74 74 74c5 5 14 5 20 0l27-27c5-6 5-15 0-20z" horiz-adv-x="1000" />

<glyph glyph-name="devices" unicode="&#xe84b;" d="M403 725h362c22 0 41 0 56-1 17-2 33-5 49-13 23-12 42-31 54-54 9-16 11-32 13-49 1-15 1-34 1-56v-279c0-22 0-41-1-56-2-17-4-33-13-49-11-23-31-42-54-54-16-8-32-11-49-13-15-1-34-1-56-1h-286c0-3 0-5-1-8-1-17-4-33-12-49-12-23-31-42-55-54-15-8-32-11-48-13-16-1-35-1-57-1h-28c-22 0-41 0-56 1-17 2-33 5-49 13-24 12-43 31-55 54-8 16-11 32-12 49-1 16-1 34-1 56v237c0 22 0 41 1 57 1 16 4 32 12 48 12 24 31 43 55 55 16 8 32 11 49 12 2 0 5 1 8 1 0 19 0 36 1 50 1 17 4 33 12 49 12 23 31 42 55 54 16 8 32 11 49 13 15 1 34 1 56 1z m-90-167c19 0 36 0 50-1 16-1 33-4 48-12 24-12 43-31 55-55 8-16 11-32 12-48 2-16 2-35 2-57v-202h283c24 0 40 0 51 1 12 1 16 3 18 4 8 4 14 10 18 18 1 2 3 6 4 18 1 11 1 27 1 51v275c0 24 0 40-1 51-1 12-3 16-4 18-4 8-10 14-18 18-2 1-6 3-18 4-11 1-27 1-51 1h-358c-24 0-40 0-52-1-11-1-15-3-17-4-8-4-14-10-18-18-1-2-3-6-4-18-1-10-1-23-1-43z m-85-84c-11-1-15-2-17-3-8-4-14-11-18-19-1-2-3-6-4-17-1-12-1-28-1-52v-233c0-24 0-39 1-51 1-12 3-16 4-18 4-8 10-14 18-18 2-1 6-3 17-4 12-1 28-1 52-1h25c24 0 39 0 51 1 11 1 16 3 18 4 7 4 14 10 18 18 1 2 3 6 3 18 1 11 1 27 1 51v234c0 23 0 39-1 51 0 11-2 15-3 17-4 8-10 14-18 19-2 1-7 2-18 3-12 1-27 1-51 1h-25c-24 0-40 0-52-1z" horiz-adv-x="1042" />

<glyph glyph-name="door-open-exit" unicode="&#xe84c;" d="M527 781l-300-77c-22-5-38-26-38-49v-613h-87c-23 0-42-18-42-41 0-24 19-42 42-42h487l0 773c0 33-30 57-62 49z m-75-485c-21 0-38 22-38 49 0 28 17 50 38 50 20 0 37-22 37-50 0-27-17-49-37-49z m276 302h-91v95h91c63 0 113-51 113-114l0-526h117c26 0 47-21 47-47 0-26-21-47-47-47h-159c-29 0-52 23-52 52l0 568c0 11-8 19-19 19z" horiz-adv-x="1042" />

<glyph glyph-name="dots-horizontal-more" unicode="&#xe84d;" d="M167 454c57 0 104-46 104-104 0-57-47-104-104-104-58 0-104 47-104 104 0 58 46 104 104 104z m333 0c58 0 104-46 104-104 0-57-46-104-104-104-57 0-104 47-104 104 0 58 47 104 104 104z m438-104c0 58-47 104-105 104-57 0-104-46-104-104 0-57 47-104 104-104 58 0 105 47 105 104z" horiz-adv-x="1000" />

<glyph glyph-name="dots-vertical-more" unicode="&#xe84e;" d="M604 683c0-57-46-104-104-104-57 0-104 47-104 104 0 58 47 105 104 105 58 0 104-47 104-105z m0-333c0-57-46-104-104-104-57 0-104 47-104 104 0 58 47 104 104 104 58 0 104-46 104-104z m-104-438c58 0 104 47 104 105 0 57-46 104-104 104-57 0-104-47-104-104 0-58 47-105 104-105z" horiz-adv-x="1000" />

<glyph glyph-name="drag-handle-horizontal" unicode="&#xe84f;" d="M754 558c46 0 83-37 83-83 0-46-37-83-83-83-46 0-83 37-83 83 0 46 37 83 83 83z m0-250c46 0 83-37 83-83 0-46-37-83-83-83-46 0-83 37-83 83 0 46 37 83 83 83z m-250 250c46 0 83-37 83-83 0-46-37-83-83-83-46 0-83 37-83 83 0 46 37 83 83 83z m0-250c46 0 83-37 83-83 0-46-37-83-83-83-46 0-83 37-83 83 0 46 37 83 83 83z m-250 250c46 0 83-37 83-83 0-46-37-83-83-83-46 0-83 37-83 83 0 46 37 83 83 83z m0-250c46 0 83-37 83-83 0-46-37-83-83-83-46 0-83 37-83 83 0 46 37 83 83 83z" horiz-adv-x="1042" />

<glyph glyph-name="drag-handle-vertical" unicode="&#xe850;" d="M296 600c0 46 37 83 83 83 46 0 83-37 83-83 0-46-37-83-83-83-46 0-83 37-83 83z m250 0c0 46 37 83 83 83 46 0 83-37 83-83 0-46-37-83-83-83-46 0-83 37-83 83z m-250-250c0 46 37 83 83 83 46 0 83-37 83-83 0-46-37-83-83-83-46 0-83 37-83 83z m250 0c0 46 37 83 83 83 46 0 83-37 83-83 0-46-37-83-83-83-46 0-83 37-83 83z m-250-250c0 46 37 83 83 83 46 0 83-37 83-83 0-46-37-83-83-83-46 0-83 37-83 83z m250 0c0 46 37 83 83 83 46 0 83-37 83-83 0-46-37-83-83-83-46 0-83 37-83 83z" horiz-adv-x="1042" />

<glyph glyph-name="education-diploma" unicode="&#xe851;" d="M514 586c0-22-17-39-38-39h-237c-21 0-38 17-38 39 0 21 17 38 38 38h237c21 0 38-17 38-38z m-38-107h-237c-21 0-38-18-38-39 0-21 17-38 38-38h237c21 0 38 17 38 38 0 21-17 39-38 39z m524 95v-299c0-29 0-56-3-79-3-25-10-55-31-82-7-8-15-15-22-22-27-21-57-28-82-31-11-2-22-2-33-2v-111c0-16-10-30-24-36-14-6-31-2-42 9l-64 64-65-64c-10-11-27-15-42-9-14 6-23 20-23 36v110h-300c-28 0-55 0-78 3-26 3-55 10-82 31-8 7-15 14-22 22-22 27-29 57-32 82-3 23-3 50-3 79v299c0 28 0 55 2 78 3 26 11 55 32 82 7 8 14 15 22 22 27 22 57 29 82 32 23 3 51 3 79 3h513c29 0 56 0 79-3 25-3 55-10 82-32 8-6 15-14 22-22 21-26 29-56 31-81 3-23 3-51 3-79l1 0z m-212-215c0 49-40 90-90 90-49 0-90-41-90-90 0-50 41-90 90-90 50 0 90 40 90 90z m135 211c0 63 0 94-17 115-4 4-7 8-12 11-21 18-52 18-115 18h-506c-63 0-94 0-116-18-4-3-8-7-11-11-17-21-17-52-17-115v-292c0-63 0-94 17-115 3-4 7-8 11-12 22-17 53-17 116-17h296v119c-24 29-38 66-38 105 0 92 75 167 168 167 92 0 167-74 167-167 0-40-15-77-37-105v-118c32 1 51 4 66 16 4 4 8 8 11 12 18 21 18 52 18 115v292h-1z" horiz-adv-x="1042" />

<glyph glyph-name="emoji-smile" unicode="&#xe852;" d="M281 394c-11 39 13 79 51 89 40 11 80-13 90-51 10-40-13-80-52-90-39-10-79 13-89 52z m345 16c39 11 62 51 52 90-11 39-51 62-90 52-39-11-62-51-51-90 10-39 50-62 89-52z m42-89l-289-77c-22-6-36-30-26-50 41-78 131-120 220-97 88 24 146 106 141 194 0 23-24 36-46 30h0z m-44-414c-245-65-496 80-561 325-66 244 79 495 324 561 244 65 495-80 561-324 65-245-80-496-324-562h0z m244 540c-54 200-259 319-459 265-201-53-320-259-266-459 54-200 259-319 459-265 200 54 319 259 265 459l1 0z" horiz-adv-x="1042" />

<glyph glyph-name="envelope-alt" unicode="&#xe853;" d="M947 567c-1 16-4 33-12 48-12 24-31 43-55 55-16 8-32 11-48 13-16 1-35 1-57 1h-486c-22 0-41 0-57-1-17-2-33-5-49-13-23-12-42-31-54-55-8-15-11-32-13-48-1-16-1-35-1-57v-320c0-22 0-41 2-57 1-16 4-33 12-48 12-24 31-43 55-55 15-8 32-11 48-12 16-2 35-2 57-2h486c22 0 41 0 57 2 16 1 32 4 48 12 24 12 43 31 55 55 8 15 11 32 12 48 2 16 2 35 2 57v320c0 22 0 40-2 56v1z m-748-7c1 11 3 15 4 18 4 7 11 14 19 18 2 1 6 2 17 4 12 0 28 0 51 0h484c24 0 39 0 51 0 11-1 15-3 17-4 8-4 15-11 19-18 1-3 2-7 3-18 0-5 1-12 1-19-50-37-116-86-170-128-29-22-54-41-73-55-9-8-16-13-21-17l-8-6c-34-25-41-30-49-32-8-2-16-2-25 0-7 2-15 7-48 32l-272 205c0 8 0 14 0 20z m666-368c0-24 0-40-1-52 0-11-2-15-3-17-4-8-10-14-18-18-2-2-6-3-18-4-11-1-27-1-51-1h-484c-24 0-39 0-51 1-11 1-15 3-17 4-8 4-15 10-19 18-1 2-2 6-4 17 0 12 0 28 0 52v244l222-168 6-4c25-19 47-35 72-41 22-6 45-6 67 0 25 6 46 22 72 41l6 4h0l8 7c5 3 13 9 22 16 18 14 44 34 73 55 37 29 80 62 120 91v-245h-2z" horiz-adv-x="1042" />

<glyph glyph-name="envelope" unicode="&#xe854;" d="M924 439c6 5 16 1 16-7v-316c0-43-35-78-78-78h-677c-44 0-78 35-78 78v316c0 8 9 12 15 7 37-28 85-64 251-185 34-25 92-77 150-77 58-1 117 53 150 77 166 121 215 157 251 185z m-401-201c38-1 93 47 120 67 216 157 232 170 282 209 10 8 15 19 15 31v31c0 43-35 78-78 78h-677c-43 0-78-35-78-78v-31c0-12 5-23 15-31 50-39 66-52 282-209 27-20 82-68 119-67z" horiz-adv-x="1042" />

<glyph glyph-name="exclamation" unicode="&#xe855;" d="M504 683c32 0 58-26 58-58v-362c0-32-26-58-58-58-32 0-58 26-58 58v362c0 32 26 58 58 58z m-61-602c0 32 26 58 58 58h6c32 0 58-26 58-58v-6c0-32-26-58-58-58l-6 0c-15 0-30 6-41 17-11 11-17 25-17 41v6z" horiz-adv-x="1042" />

<glyph glyph-name="external-link" unicode="&#xe856;" d="M583 683c0-23 19-41 42-41h108l-221-221c-16-16-16-42 0-59 17-16 43-16 59 0l221 221v-108c0-23 18-42 41-42 23 0 42 19 42 42v208c0 23-19 42-42 42h-208c-23 0-42-19-42-42z m-125-41c0 23-18 41-41 41h-77c-22 0-41 0-56-1-17-1-33-4-49-12-24-12-43-31-55-55-8-16-11-32-12-48-1-16-1-35-1-57v-320c0-22 0-41 1-56 1-17 4-33 12-49 12-24 31-43 55-55 16-8 32-11 49-12 15-1 34-1 56-1h320c22 0 41 0 57 1 16 1 32 4 48 12 24 12 43 31 55 55 8 16 11 32 12 49 1 15 1 34 1 56v77c0 23-18 41-41 41-23 0-42-18-42-41v-75c0-24 0-40-1-52-1-11-2-15-3-17-4-8-11-14-19-18-2-1-6-3-17-4-12-1-28-1-51-1h-317c-24 0-40 0-52 1-11 1-15 3-17 4-8 4-14 10-18 18-1 2-3 6-4 17-1 12-1 28-1 52v316c0 24 0 40 1 52 1 11 3 15 4 17 4 8 10 15 18 19 2 1 6 2 17 3 12 1 28 1 52 1h75c23 0 41 19 41 42z" horiz-adv-x="1000" />

<glyph glyph-name="filter" unicode="&#xe857;" d="M918 767h-755c-35 0-52-42-28-67l301-301v-335c0-13 7-25 17-32l130-92c26-18 62 1 62 32v427l301 301c24 25 7 67-28 67z" horiz-adv-x="1042" />

<glyph glyph-name="flag" unicode="&#xe858;" d="M917 165c0-13-11-18-24-24-52-22-107-42-165-42-83 0-121 51-220 51-72 0-147-25-207-53-4-2-8-2-11-4v-139c0-38-29-62-61-62-35 0-62 27-62 62v671c-24 18-41 48-41 81 0 57 46 102 103 102 57 0 103-45 103-102 0-33-15-63-41-81v-57c8 3 106 52 206 52 117 0 175-50 227-50 70 0 147 50 165 50 15 0 28-11 28-24v-431z" horiz-adv-x="1042" />

<glyph glyph-name="flip-camera" unicode="&#xe859;" d="M965 35v516c0 47-38 86-86 86h-157l-22 58c-13 34-45 56-81 56h-224c-36 0-68-22-81-56l-22-58h-157c-48 0-86-39-86-86v-516c0-48 38-86 86-86h744c48 0 86 38 86 86z m-681 329c26 99 116 173 223 173 56 0 107-20 147-53 10-9 11-24 3-36-11-14-32-15-47-4-29 21-64 34-103 34-75 0-138-47-162-114h38c13 0 21-16 13-27l-67-93c-7-10-21-10-27 0l-68 93c-8 11 0 27 14 27h36z m347-113c-14 0-21 15-13 26l67 94c7 9 20 9 27 0l68-94c8-11 0-26-14-26h-36c-26-100-116-174-223-174-56 0-107 20-147 53-10 9-11 25-3 36 10 15 32 15 47 4 28-21 64-34 103-34 75 0 138 48 161 115h-37z" horiz-adv-x="1042" />

<glyph glyph-name="frozen-mountain" unicode="&#xe85a;" d="M1004 350l-500 500-500-500 500-500 239 239 61-60 81 81-61 60 180 180v0z m-912 0l412 412 413-412-59-58-198 198-45-44-155 156h0l-1 0-309-310-58 58h0z m412-412l-195 195 61 62 134-135 134 135 62-62-195-195h-1z m277 276l-121 121-45-45-156 156-231-232-25 25 230 230 0 1 25 25 0-1 0 1 25-25 0-1 133-133 45 45 143-144-23-23v0z" horiz-adv-x="1042" />

<glyph glyph-name="fullscreen-exit" unicode="&#xe85b;" d="M292 454c57 0 104 47 104 104v188c0 23-19 42-42 42h-41c-23 0-42-19-42-42v-167h-167c-23 0-41-18-41-41v-42c0-23 18-42 41-42h188z m416 0c-57 0-104 47-104 104v188c0 23 19 42 42 42h42c23 0 41-19 41-42v-167h167c23 0 42-18 42-41v-42c0-23-19-42-42-42h-188z m0-208c-57 0-104-47-104-104v-188c0-23 19-42 42-42h42c23 0 41 19 41 42v167h167c23 0 42 19 42 42v41c0 23-19 42-42 42h-188z m-312-104c0 57-47 104-104 104h-188c-23 0-41-19-41-42v-41c0-23 18-42 41-42h167v-167c0-23 19-42 42-42h41c23 0 42 19 42 42v188z" horiz-adv-x="1000" />

<glyph glyph-name="fullscreen" unicode="&#xe85c;" d="M169 788c-57 0-104-47-104-105v-187c0-23 19-42 42-42h41c23 0 42 19 42 42v167h167c23 0 41 18 41 41v42c0 23-18 42-41 42h-188z m667 0c57 0 104-47 104-105v-187c0-23-19-42-42-42h-41c-23 0-42 19-42 42v167h-167c-23 0-41 18-41 41v42c0 23 18 42 41 42h188z m0-876c57 0 104 47 104 105v187c0 23-19 42-42 42h-41c-23 0-42-19-42-42v-166h-167c-23 0-41-19-41-42v-42c0-23 18-42 41-42h188z m-771 105c0-58 47-105 104-105h188c23 0 41 19 41 42v42c0 23-18 42-41 42h-167v166c0 23-19 42-42 42h-41c-23 0-42-19-42-42v-187z" horiz-adv-x="1000" />

<glyph glyph-name="globe-website-alt" unicode="&#xe85d;" d="M511 767c-230 0-417-187-417-417 0-230 187-417 417-417 230 0 417 187 417 417 0 230-187 417-417 417z m331-375h-123c-5 91-23 176-52 240-2 6-5 11-8 17 98-49 169-144 183-257z m-662-84h124c4-91 22-175 51-240 2-6 5-11 8-17-98 49-169 144-183 257z m175 324c-29-64-47-149-51-240h-123c14 113 84 208 182 257-3-6-5-11-8-17z m236-530c-14-31-29-53-44-67-14-14-26-18-36-18-10 0-22 4-36 18-15 14-30 36-44 67-23 52-40 124-44 206h248c-4-82-21-153-44-206h0z m-204 290c4 82 21 153 44 206 14 31 29 53 44 67 15 14 27 18 36 18 10 0 22-4 37-18 14-14 30-36 43-67 24-52 40-124 45-206h-248-1z m272-341c3 6 6 11 8 17 29 65 47 149 52 240h123c-14-113-85-208-183-257z" horiz-adv-x="1042" />

<glyph glyph-name="hand-raise" unicode="&#xe85e;" d="M912 297c-24 25-63 25-86-1-43-47-104-104-135-68-10 12-6 50-3 74l43 351c4 32-19 62-51 66-31 4-60-21-64-52l-48-276c-2-5-10 115-25 360 0 32-26 57-58 57-32 0-58-25-58-57l-1-362c0-2-19 92-56 282-6 31-36 54-68 48-31-6-52-37-46-68l46-331c0-3-25 56-74 180-11 30-44 47-74 36-30-10-46-45-35-75l120-388 2-6c35-105 133-175 244-175 159 1 356 232 431 327 19 24 16 57-4 78z" horiz-adv-x="1042" />

<glyph glyph-name="heart-alt" unicode="&#xe85f;" d="M853 641c-90 90-237 82-316-17l-15-19-15 19c-79 99-227 107-316 17-80-80-83-209-7-293l307-338c8-8 19-13 31-13 12 0 23 5 31 13l307 338c76 84 73 213-7 293z m-251-69c48 60 138 65 192 10 49-48 51-127 4-178l-276-304-276 304c-47 51-45 130 4 178 54 55 144 50 192-10l47-60c8-10 20-15 33-15 13 0 25 5 33 15l47 60z" horiz-adv-x="1042" />

<glyph glyph-name="heart" unicode="&#xe860;" d="M832 609c66-66 69-173 6-242l-285-314c-17-18-45-18-62 0l-285 314c-63 69-61 176 6 242 74 74 196 67 261-14l49-61 49 61c65 81 187 88 261 14z" horiz-adv-x="1042" />

<glyph glyph-name="home-alt" unicode="&#xe861;" d="M893 565l-270 214c-5 4-9 7-14 10-48 29-114 25-159-10l-269-213c-42-33-66-83-66-136v-469c1-18 9-35 22-48 14-13 33-20 52-20h221c20 0 38 8 52 21 14 14 21 32 21 51v172h107v-176c1-8 2-16 6-24 4-8 9-16 16-23 2-2 5-4 7-6l17-9c4-2 8-3 12-4 5-1 10-2 15-2h222c7 0 15 1 22 3 5 2 10 4 15 7 5 3 9 6 14 10 8 9 14 19 18 29 2 8 3 15 3 23v464c0 53-23 102-65 136l1 0z m-18-589h-202v172c0 19-8 38-22 52-14 13-32 20-51 20h-127c-19 0-37-7-51-20-14-14-22-33-22-52v-171h-201v453c0 27 12 53 34 70l269 214c18 14 45 15 64 4 2-2 4-3 5-4l270-214c21-17 34-43 34-70v-454z" horiz-adv-x="1042" />

<glyph glyph-name="home" unicode="&#xe862;" d="M105-77c0-8 4-16 10-22 7-6 16-9 25-9l244 0c9 0 18 4 24 10 7 6 10 15 10 24v201c0 9 4 17 11 23 6 7 15 10 24 10h140c9 0 18-3 24-10 7-6 11-14 11-23v-203c0-4 1-8 2-11 2-4 5-8 8-11 1-1 2-2 3-3 1-1 2-1 4-2l4-2c2-1 4-2 6-2 2 0 5-1 7-1l244 0c4 0 8 0 11 1 3 1 5 2 8 4 2 1 4 3 6 4 4 4 7 9 8 14 2 3 2 7 2 10l0 511c0 45-20 86-55 114-104 83-123 98-297 235-3 3-7 6-10 8-17 10-36 15-56 15-24 0-48-8-66-23l-297-235c-35-27-55-69-55-113v-514z" horiz-adv-x="1042" />

<glyph glyph-name="image" unicode="&#xe863;" d="M191 729c-66 0-119-54-119-120v-518c0-66 53-120 119-120h678c66 0 119 54 119 120v518c0 66-53 120-119 120h-678z m0-80h678c22 0 40-18 40-40v-447l-186 167c-30 27-76 27-107 0l-158-143-75 65c-30 26-74 25-104 0l-128-110v468c0 22 18 40 40 40z m160-120c-44 0-80-35-80-79 0-44 36-80 80-80 44 0 79 36 79 80 0 44-35 79-79 79z" horiz-adv-x="1042" />

<glyph glyph-name="link-angled" unicode="&#xe864;" d="M744 246c-16-17-43-17-59 0-16 16-16 42 0 59l93 93c27 27 43 63 42 102 0 39-15 75-43 103l-1 0c-27 28-64 43-103 43-39 0-76-14-102-41l-93-93c-17-16-43-16-59 0-16 16-16 43 0 59l93 93c43 43 101 66 161 65 61 0 119-24 162-67 44-43 68-101 69-162 0-61-24-119-67-161l-93-93z m-271-151l93 93c16 16 43 16 59 0 16-16 16-43 0-59l-93-93c-43-43-100-66-161-65-61 0-119 24-162 68-45 43-68 102-69 162 0 61 24 119 67 161l93 93c16 17 43 17 59 0 16-16 16-42 0-58l-93-94c-27-27-43-63-42-101 0-39 15-76 43-103 1-1 1-1 1-1 27-29 64-44 103-44 40 0 75 14 102 41z m-63 88c-16-17-42-17-59 0-16 16-16 42 0 58l280 280c16 16 42 16 59 0 16-17 16-43 0-59l-280-279z" horiz-adv-x="1042" />

<glyph glyph-name="link-double" unicode="&#xe865;" d="M703 741c-58 1-115-21-157-62l0-1-62-62c-17-16-17-42-1-58 17-17 43-17 59-1l62 62c27 25 62 39 98 39 37 0 72-15 98-41 26-26 41-61 41-97 0-37-14-72-39-98l-109-109c-14-14-31-25-50-32-18-7-38-10-58-8-20 1-40 7-57 16-18 10-33 23-45 39-14 19-40 23-58 9-19-14-23-40-9-59 19-25 44-46 72-62 28-15 59-24 91-26 32-3 64 2 94 13 30 11 57 29 79 51l109 109 1 1c40 42 63 98 62 156 0 59-24 115-65 156-41 42-97 65-156 65z m-238-251c-32 2-64-3-94-14-30-11-57-28-79-51l-109-109-1 0c-40-42-63-99-62-157 0-59 24-115 65-156 41-41 97-65 156-65 58-1 115 22 157 62l0 1 62 62c16 16 16 43 0 59-16 16-43 16-59 0l-62-62c-26-25-61-39-97-39-37 0-72 15-98 41-26 26-41 61-41 98 0 36 14 71 39 98l109 108c14 14 31 25 50 32 18 7 38 10 58 9 20-2 40-8 57-17 18-10 33-23 45-39 14-18 40-22 58-8 19 13 23 39 9 58-19 25-44 47-72 62-28 15-59 24-91 27z" horiz-adv-x="1042" />

<glyph glyph-name="link" unicode="&#xe866;" d="M308 581c-61 0-119-23-162-67-42-43-66-101-66-163 0-62 24-120 66-163 44-44 100-67 161-67h131c23 0 42 18 42 41 0 23-19 42-42 42h-131c-38 0-73 15-101 43-28 28-43 64-42 104 0 0 0 0 0 1-1 39 14 76 42 104 26 27 63 42 102 42h131c23 0 42 19 42 42 0 23-19 41-42 41h-131z m297-2c-23 0-42-19-42-42 0-23 19-42 42-42h131c38 0 74-15 102-43 27-27 42-64 42-103l0-1c1-39-14-76-42-103-26-28-63-43-102-43h-131c-23 0-42-18-42-41 0-23 19-42 42-42h131c60 0 119 23 162 67 42 43 67 101 66 163 0 61-25 119-67 162-43 43-100 68-161 68h-131z m-281-269l395 0c23 0 42 19 42 42 0 23-19 41-42 41l-395 0c-23 0-41-18-41-41 0-23 18-42 41-42z" horiz-adv-x="1042" />

<glyph glyph-name="liveswitch-cloud" unicode="&#xe867;" d="M563 322c-8-3-17-5-26-5l41 111c6 15 15 37 33 34 15-2 16-19 16-33 0-21-14-85-63-107h-1z m-185-85c2-16 16-22 33-22 17 1 34 14 42 35-61 32-77 0-75-13z m632-15c0-117-93-213-208-213h-542c-138 0-250 115-250 256 0 131 97 240 223 253 52 103 156 173 277 173 152 0 278-111 307-258 107-7 193-98 193-211z m-332-33c-42-7-90 21-129 45-13 8-25 15-36 20l14 34c116 0 144 92 142 135-1 42-37 69-73 67-19-1-60-13-85-82l-30-80c-84 33-69 113-67 129v1c-7 0-15 0-22-3-60-16-60-119 79-156l-8-21c-107 39-131-15-132-28-3-30 26-53 62-60 19-4 38-3 56 3 18 5 34 16 46 30 0 0 41-33 96-70 34-23 83-5 87 36z" horiz-adv-x="1042" />

<glyph glyph-name="liveswitch-concierge-logo" unicode="&#xe868;" d="M448 748c-30 0-54-24-54-55 0-30 24-55 54-55h120c29 0 53 25 53 55 0 31-24 55-53 55h-120z m60-149c-85 0-148-17-196-53-47-36-71-85-87-132-7-21-13-44-19-66l-1-4c-7-23-13-46-21-68-15-44-35-84-70-120-33-36-43-86-27-129 16-44 57-75 111-75h619c54 0 95 31 111 75 16 43 6 93-27 129-35 36-55 76-70 120-8 22-14 45-21 68l-1 5c-6 21-12 44-19 65-16 47-40 96-87 132-48 36-111 53-195 53z m-316-520c49 51 76 108 94 160 9 27 16 52 23 75l1 4c6 22 11 42 17 60 13 39 28 63 50 80 22 17 59 31 131 31 71 0 108-14 130-31 22-17 37-41 50-80 6-18 11-38 18-60l0-3c7-24 14-49 23-76 18-52 45-109 94-160 5-5 5-11 4-13 0-1-1-2-2-3 0 0-2-1-8-1h-619c-6 0-8 1-8 1-1 1-2 2-2 3-1 2-1 8 4 13z" horiz-adv-x="1042" />

<glyph glyph-name="liveswitch-contact-logo" unicode="&#xe869;" d="M592 818c-214 0-387-169-394-382-101-45-171-147-171-264 0-160 130-290 289-290 87 0 165 38 217 98-48 7-88 22-118 37-28-19-62-30-99-30-102 0-184 83-184 185 0 62 30 117 77 150 28 20 63 33 100 34 2 0 5 0 7 0 102 0 184-83 184-185 0-8-1-16-2-24-4 2-8 3-12 4-7 3-14 6-20 9-64 31-115 84-142 150-39-5-71-22-96-41 36-87 103-159 187-201 2-1 4-1 6-3 2-1 5-2 7-3 1 0 2-1 3-1 2-1 5-2 7-3 3-1 6-3 8-4 3-1 6-2 9-3 4-1 7-2 10-3 2-1 5-2 7-3 1 0 2 0 3-1 3-1 6-1 8-2 4-1 7-2 10-3 3-1 6-1 9-2 10-2 21-4 31-6 4-1 7-1 10-1 3-1 6-1 9-1 2 0 5-1 7-1 2 0 5 0 7 0 1 0 1 0 1 0 4 0 8-1 11-1 1 0 1 0 2 0 2 0 5 0 7 0 2 0 3 0 4 0 4 0 8 0 11 0 4 0 8 0 11 1 208 11 373 184 373 394 1 219-176 396-394 396z m38-683c-3-1-6-1-8-1-3-1-6-1-9-1-3-1-6-1-10-1 2 13 3 27 3 40 0 160-129 290-289 290-4 0-8 0-12 0 19 142 141 251 287 251 160 0 290-130 290-291 0-147-110-269-252-287z" horiz-adv-x="1042" />

<glyph glyph-name="liveswitch-logomark" unicode="&#xe86a;" d="M526 178l38 95c320 0 398 252 391 370-7 118-105 189-202 184-52-3-164-35-234-226-18-48-38-102-53-145l0 0c-15-40-26-70-28-75-233 94-189 320-182 357l0 0c-21 3-43 1-64-6-162-46-162-329 218-431l-21-57c-275 100-354-24-363-80-11-76 68-144 169-164 150-29 247 52 283 93 0 0 110-90 262-193 92-63 228-13 238 100-116-19-247 59-355 124-35 20-68 40-97 54z m178 477c16 43 47 105 90 96 43-9 44-54 43-92-4-149-111-309-245-309 0 0 94 258 112 305z m-549-524c-5 38 37 126 205 36-43-125-195-115-205-36z" horiz-adv-x="1042" />

<glyph glyph-name="liveswitch-logotype" unicode="&#xe86b;" d="M1940 719c39 5 165 7 192-80 36-117-151-157-201-160 9-19 23-38 38-59 38-52 81-112 67-195-14-81-78-151-228-153-159-1-274 124-269 239 7 144 170 163 220 64-146-20-104-222 37-229 92-4 130 66 115 134-8 37-89 192-89 192-109 18-196 87-202 152-9 91 84 85 84 85 3-92 41-143 94-166-7 66 15 160 142 176z m41-51c-80-14-95-81-76-141 73 7 144 44 145 90 0 21-19 59-69 51z m518-132c24-72-61-359-123-339-56 19 42 275 42 275 5 11 4 17-5 28-10 13-23 23-37 30-13 6-24 6-32-4-9-12-28-56-49-109-41-100-95-228-123-221-44 13 54 259 61 276 6 11 4 17-5 28-11 13-24 23-39 30-13 6-25 6-33-4-9-11-65-105-87-242-23-139 30-172 79-172 48 0 95 73 114 107 13-104 71-107 109-107 115 0 218 220 224 316 4 113-83 108-95 108h-1v0z m-1364 0c37-85-82-347-130-338-45 8 7 201 41 273 5 11 4 17-5 28-11 12-24 23-39 29-13 7-26 7-33-3-9-11-64-85-78-236-16-156 61-186 108-175 134 31 236 241 238 312 1 113-97 110-101 110l-1 0z m-227-61c4 6 3 12-3 17-14 17-32 32-53 40-11 4-18 4-24-5-1-1-2-3-3-5-15-21-60-88-86-233v-4c-8-36-29-153 92-171-11 115 32 270 77 361v0z m1771 51c5 9 13 9 24 5 20-8 39-21 53-39 5-7 7-12 3-18-45-91-88-246-77-361-121 19-100 134-93 171v4c27 144 72 212 87 233 1 2 3 6 3 5z m-1247 8c-43 4-122-21-184-161-65-145 9-261 122-258 87 2 192 93 124 149-39-88-169-109-160 25 84-33 175 25 200 99 29 87-45 141-102 146z m-95-215c27 108 86 160 106 162 59 7-18-175-106-162z m1865-56c-39-88-183-111-161 44 14 100 88 168 116 174 51 11 21-51-12-104 94-64 168 157-5 157-44 0-125-21-184-162-61-146 8-261 122-258 86 3 191 93 124 149z m-276 192c68 0 86 65 86 65h-61c19 40 40 79 61 116 3 7 2 12-4 18-13 17-32 31-53 39-5 1-11 1-16 1-5-2-9-4-13-8-13-13-48-62-87-165h-12c-17 0-23-1-28-10-5-7-9-15-10-22-1-9 0-17 2-25 0-3 2-5 4-7 2-1 4-2 7-2h16c-16-55-29-110-40-166v-1c-7-32-32-154 93-174-1 141 21 249 55 341v0z m651 71c-100 24-175-143-206-213-9-18-14-30-16-30-8 1 69 258 130 353 5 7 3 13-1 19-11 14-24 26-40 33-21 11-31 10-43-5-19-24-99-153-149-411-16-81-1-154 59-158 42-2 92 98 134 181 30 60 56 113 72 113 11-2 3-33-7-72-22-88-57-226 74-222-13 56 4 131 21 201 23 102 45 196-28 213l0-2z m-3127-311l29 74c247 0 309 195 303 286-5 91-81 147-156 143-40-3-127-28-181-176-14-36-29-78-42-112v-1c-11-31-20-54-21-57-180 73-146 248-141 277-17 2-34 0-49-5-126-35-126-254 168-333l-16-45c-213 77-274-19-281-61-8-59 52-112 131-127 116-23 192 40 219 71 0 0 85-69 202-149 72-49 177-10 185 78-90-15-191 45-276 95-27 16-52 31-75 42h1z m138 370c12 33 36 81 69 73 33-6 35-41 33-71-3-115-85-240-189-240 0 0 72 200 87 237v1z m-425-406c-4 29 29 97 158 28-33-97-150-89-158-28z m800 419c23 28 21 66-2 85-23 20-60 13-83-15-23-28-22-66 1-85 24-19 61-13 84 15z m1851 0c22 28 21 66-2 85-23 20-60 13-83-15-23-28-22-66 1-85 23-20 61-13 84 15z" horiz-adv-x="3750" />

<glyph glyph-name="liveswitch-sdk-alt" unicode="&#xe86c;" d="M979 659c-5 39-17 80-51 114-34 34-75 46-114 51-35 5-79 5-125 5h-369c-46 0-90 0-125-5-38-5-80-17-113-51-35-34-47-75-52-114-5-35-5-78-5-125v-368c0-47 0-90 5-125 5-39 17-80 51-114 34-34 75-46 114-51 35-5 78-5 125-5h368c47 0 90 0 125 5 39 5 80 17 114 51 34 34 46 75 51 114 5 35 5 78 5 125v368c0 47 0 90-5 125h1z m-79-488c0-102 0-154-31-185-32-32-83-32-185-32h-359c-102 0-153 0-185 32-31 31-31 83-31 185v358c0 102 0 153 31 185 32 32 83 32 185 32h359c102 0 153 0 185-32 31-32 31-83 31-185v-358z m-327 51c-19 11-38 22-55 30l22 54c181 0 226 143 222 210-5 66-60 107-115 104-30-1-93-20-133-129-10-27-21-57-30-81v-1c-9-22-15-39-16-42-132 53-107 182-103 202-12 2-25 1-36-3-92-26-92-187 123-244l-12-33c-156 57-200-14-206-45-6-43 39-82 96-93 85-17 140 29 160 52 0 0 63-51 149-109 53-36 130-7 135 57-66-11-140 33-201 70l0 1z m46 301c10 24 27 59 51 54 25-5 25-31 25-52-3-85-63-176-139-176 0 0 53 147 63 174z m-311-297c-3 21 21 71 116 20-24-71-110-65-116-20z" horiz-adv-x="1042" />

<glyph glyph-name="liveswitch-sdk" unicode="&#xe86d;" d="M669 578c-25 5-42-30-51-55-10-27-64-173-64-173 77 0 137 91 140 176 0 21 0 47-25 52z m-363-352c-3 21 21 71 116 20-24-71-110-65-116-20z m-239 535c-43-52-43-129-43-284v-254c0-155 0-232 43-284 7-9 16-18 25-25 52-43 129-43 284-43h254c155 0 232 0 284 43 9 7 18 16 25 25 43 52 43 129 43 284v254c0 155 0 232-43 284-7 9-16 18-25 25-52 43-129 43-284 43h-254c-155 0-232 0-284-43-9-7-18-16-25-25z m471-455l-21-53c16-9 35-20 55-32 61-36 135-81 202-70-6-64-83-93-136-57-86 59-149 110-149 110-20-23-75-69-160-53-58 12-103 50-96 93 5 32 50 102 206 46l12 32c-216 58-216 219-124 245 12 4 24 5 36 3l0 0c-4-21-29-149 104-202 1 2 7 19 15 42l1 0c8 25 20 55 30 82 40 109 103 127 132 129 56 3 112-38 116-105 4-66-41-210-223-210z" horiz-adv-x="1042" />

<glyph glyph-name="liveswitch-video-logo" unicode="&#xe86e;" d="M749 108c22-42 57-105 133-105h2c54 1 116 42 120 129 2 21 2 415 0 436-4 87-65 128-120 129h-2c-76 0-110-62-133-104l0-1c-3-5-5-10-8-14-10-19-35-64-66-123-59 112-91 168-103 183-30 37-62 59-132 59h-215c-79 0-123 0-161-28-12-8-23-19-31-31-28-38-28-81-28-160v-256c0-79 0-122 28-160 9-12 19-23 31-32 38-27 82-27 161-27h215c70 0 102 22 132 59 13 15 44 71 104 183 53 100 106 200 160 301 20 37 31 53 46 53 19 0 23-25 24-36 0-22 0-403 0-425 0-11-4-36-24-36-15 0-26 15-46 53l-80 148-56-104 49-91z m-627 482c12 9 48 9 103 9h216c37 0 42-6 55-23 12-16 72-127 124-226-52-99-111-210-124-226l0 0c-14-17-19-23-56-23h-215c-55 0-91 0-103 9-4 3-7 6-10 10-9 12-9 48-9 102v256c0 54 0 90 9 102 3 4 6 7 10 10z" horiz-adv-x="1042" />

<glyph glyph-name="lock-alt" unicode="&#xe86f;" d="M499 60c26 0 48 20 48 47v108c0 25-22 47-48 47-26 0-47-22-47-47v-108c0-27 21-47 47-47z m377 289c0 44-37 81-80 81h-54v77c0 135-108 244-243 246-134 0-242-109-242-242v-81h-54c-45 0-80-37-80-81v-377c0-45 35-80 80-80h593c43 0 80 35 80 80v377z m-538 81v81c0 87 72 161 161 161 88 0 162-74 162-161v-81h-323z m458-81v-377h-593v377h593z" horiz-adv-x="1000" />

<glyph glyph-name="lock" unicode="&#xe870;" d="M796 404h-40v121c0 141-115 256-256 256-141 0-256-115-256-256v-121h-40c-45 0-81-36-81-81v-323c0-45 36-81 81-81h592c45 0 81 36 81 81v323c0 45-36 81-81 81z m-175 0h-242v121c0 67 54 121 121 121 67 0 121-54 121-121v-121z" horiz-adv-x="1000" />

<glyph glyph-name="menu-close-lg" unicode="&#xe871;" d="M92 738c15 16 41 16 56 0l332-331 332 331c15 16 41 16 56 0 16-15 16-41 0-56l-331-332 331-332c16-15 16-41 0-56-15-16-41-16-56 0l-332 331-332-331c-15-16-41-16-56 0-16 15-16 41 0 56l331 332-331 332c-16 15-16 41 0 56z" horiz-adv-x="960" />

<glyph glyph-name="menu-close-md" unicode="&#xe872;" d="M212 618c15 16 41 16 56 0l212-211 212 211c15 16 41 16 56 0 16-15 16-41 0-56l-211-212 211-212c16-15 16-41 0-56-15-16-41-16-56 0l-212 211-212-211c-15-16-41-16-56 0-16 15-16 41 0 56l211 212-211 212c-16 15-16 41 0 56z" horiz-adv-x="960" />

<glyph glyph-name="menu-close-sm" unicode="&#xe873;" d="M292 538c15 16 41 16 56 0l132-131 132 131c15 16 41 16 56 0 16-15 16-41 0-56l-131-132 131-132c16-15 16-41 0-56-15-16-41-16-56 0l-132 131-132-131c-15-16-41-16-56 0-16 15-16 41 0 56l131 132-131 132c-16 15-16 41 0 56z" horiz-adv-x="960" />

<glyph glyph-name="message-alt" unicode="&#xe874;" d="M501-33c253 0 458 181 458 405 0 224-205 406-458 406-253 0-459-182-459-406 0-145 87-273 217-345-19-28-41-53-67-76-12-11-7-26 13-28 112-10 187 55 187 55 35-7 71-11 109-11z" horiz-adv-x="1042" />

<glyph glyph-name="message" unicode="&#xe875;" d="M317-71c-7-2-14-3-20-4-16-3-32-4-50-3 0 0 0 0 0 0-4 0-9 1-13 1-20 2-25 17-13 28 4 4 9 8 13 12 1 1 2 2 4 4 10 10 19 20 28 30 2 3 5 6 7 9 5 7 11 14 16 21-25 14-48 30-70 47-91 74-148 180-148 298 0 224 206 406 459 406 253 0 458-182 458-406 0-224-205-405-458-405-38 0-74 4-109 11 0 0-39-35-104-49z m213 121c217 0 375 154 375 322 0 169-158 323-375 323-217 0-375-154-375-323 0-194 195-322 375-322z" horiz-adv-x="1042" />

<glyph glyph-name="moon-do-not-disturb" unicode="&#xe876;" d="M586-92c137 0 261 62 344 164 12 15-1 37-20 33-215-41-412 124-412 340 0 125 67 240 176 301 16 10 12 35-7 39-26 5-53 7-81 7-244 0-442-198-442-442 0-244 198-442 442-442z" horiz-adv-x="1042" />

<glyph glyph-name="more-grid-big" unicode="&#xe877;" d="M174 600c0 46 37 83 83 83 46 0 84-37 84-83 0-46-38-83-84-83-46 0-83 37-83 83z m250 0c0 46 37 83 83 83 46 0 84-37 84-83 0-46-38-83-84-83-46 0-83 37-83 83z m250 0c0 46 37 83 83 83 46 0 84-37 84-83 0-46-38-83-84-83-46 0-83 37-83 83z m-500-250c0 46 37 83 83 83 46 0 84-37 84-83 0-46-38-83-84-83-46 0-83 37-83 83z m250 0c0 46 37 83 83 83 46 0 84-37 84-83 0-46-38-83-84-83-46 0-83 37-83 83z m250 0c0 46 37 83 83 83 46 0 84-37 84-83 0-46-38-83-84-83-46 0-83 37-83 83z m-500-250c0 46 37 83 83 83 46 0 84-37 84-83 0-46-38-83-84-83-46 0-83 37-83 83z m250 0c0 46 37 83 83 83 46 0 84-37 84-83 0-46-38-83-84-83-46 0-83 37-83 83z m250 0c0 46 37 83 83 83 46 0 84-37 84-83 0-46-38-83-84-83-46 0-83 37-83 83z" horiz-adv-x="1042" />

<glyph glyph-name="myworld" unicode="&#xe878;" d="M521 779c-237 0-429-192-429-429 0-237 192-429 429-429 237 0 429 192 429 429 0 237-192 429-429 429z m-55-88c0-59-39-74-83-24 26 12 54 19 83 24z m55-687c-192 0-345 154-345 346 0 50 10 97 29 140 17-24 43-64 60-88 22-30 55-57 87-74 24-13 60-32 85-45 17-11 29-28 29-49v-55c0-16 5-30 16-40 39-39 39-84 39-135z m73 7c13 35 24 103 50 130l19 19c16 15 24 36 24 57 0 14-6 28-15 38l-24 22c-11 11-25 18-40 18h-114c-18 7-38 55-56 55-21 0-83 10-83 40 0 8 6 17 14 19l54 19c8 3 19 0 26-5l17-14c0 0 4-4 7-4h12c10 0 16 11 12 19l-27 54c-2 7-2 12 3 17l17 16c0 0 6 5 9 5 3 0 16 0 16 0 3 0 6 0 10 4l14 13c5 6 5 14 0 19l-9 9c-5 5-5 14 0 19l26 26c10 10 10 29 0 40l-48 48c3 0 8 2 13 2 135 0 251-80 308-192l-22-12c-5-4-12-7-16-14l-34-50c-9-14-9-33 0-47l31-47c7-8 15-13 26-17l50-12c-19-145-128-263-270-294z" horiz-adv-x="1042" />

<glyph glyph-name="myworld2-alt" unicode="&#xe879;" d="M953 781c-35 35-80 28-93 25-19-5-37-12-52-20-31-17-68-42-108-72-12-10-25-20-38-30-131 48-284 19-389-86-105-105-133-258-85-389-11-13-21-25-30-38-31-40-56-76-72-107-8-15-16-33-20-52-3-14-11-58 24-93 35-35 80-28 93-25 19 4 37 12 52 20 31 17 68 42 107 72 9 7 18 14 26 21 139-70 312-47 428 69 115 115 139 289 69 427 7 9 13 18 20 26 30 40 56 76 72 107 8 15 16 33 20 52 3 13 10 58-25 93l1 0z m-700-758c-10-7-19-14-28-19-40-26-68-36-76-27-9 9 1 36 26 76 6 9 12 18 20 28 10 15 22 31 35 48 13-19 27-37 44-53 8-8 15-15 23-21-16-12-30-23-44-32z m109 85c-11 8-21 16-30 26-112 112-112 294 0 406 112 112 294 112 406 0 9-10 18-20 26-30-54-63-120-135-194-209-74-74-145-140-208-193z m376 26c-81-81-198-104-299-68 59 50 123 111 190 177 66 66 126 131 177 189 36-101 13-218-68-298z m130 512c-6-8-12-18-19-28-10-13-20-28-32-43-7 8-14 15-21 22-17 17-35 32-54 44 17 14 33 25 48 36 10 7 20 13 28 19 40 25 68 36 77 27 9-9-2-37-27-77z" horiz-adv-x="1042" />

<glyph glyph-name="myworld2" unicode="&#xe87a;" d="M188 209c-48 131-20 284 86 389 105 105 257 134 388 85 14 11 26 21 39 31 39 30 76 55 107 71 15 8 33 16 52 21 13 3 58 10 93-25 35-35 27-79 24-93-4-19-12-37-20-52-16-30-42-67-72-107-61-80-152-181-257-286-104-105-206-195-286-257-39-30-76-55-107-71-15-8-33-17-52-21-13-3-58-10-93 25-35 35-27 79-24 93 4 19 12 37 20 52 16 30 42 67 72 107 9 12 19 25 30 38z m108-154c-8 6-15 13-22 21-17 16-32 34-45 53-13-17-25-33-35-47-7-10-13-20-19-29-25-40-36-67-27-76 9-9 37 1 77 27 9 5 18 12 28 19 13 9 28 20 43 32z m446 587c19-13 37-27 54-44 7-7 14-15 21-23 12 16 22 30 32 43 7 10 13 20 19 29 25 40 36 67 26 76-9 9-36-1-76-27-9-5-18-12-28-19-15-10-31-22-48-35z m54-566c100 99 130 241 92 368-58-72-134-155-220-241-85-85-169-161-240-220 126-38 268-7 368 93z" horiz-adv-x="1042" />

<glyph glyph-name="octagon-warning" unicode="&#xe87b;" d="M499 550c-23 0-41-19-41-42v-166c0-23 18-42 41-42 23 0 42 19 42 42v166c0 23-19 42-42 42z m-2-292c-23 0-42-18-42-41v-4c0-12 5-22 13-30 8-8 18-12 29-12l4 0c23 0 42 19 42 42v4c0 23-19 41-42 41h-4z m189 501c-12 7-24 12-37 15-14 3-29 3-46 3l-208 0c-16 0-31 0-46-3-13-3-25-8-36-15-13-8-23-19-35-30l-2-3 0 0-1 0-141-141 0-1-3-2c-12-12-22-23-30-35-7-11-12-24-15-36-3-15-3-30-3-47l0-207c0-17 0-32 3-47 3-12 8-25 15-36 8-13 18-23 30-35l147-147c12-12 22-22 35-30 11-7 23-12 36-15 15-3 30-3 46-3h208c17 0 32 0 46 3 13 3 25 8 37 15 12 8 23 19 35 31l146 146c12 12 23 22 30 35 7 11 12 24 15 36 4 15 4 30 4 47v207c0 17 0 32-4 47-3 12-8 24-15 36-7 12-18 23-30 35l-146 146c-12 12-23 23-35 31z m-87-65c23 0 27 0 31-1 4-1 8-3 12-5 3-2 6-5 22-21l142-141c16-16 18-20 20-23 3-3 4-8 5-12 1-4 2-8 2-30v-201c0-22-1-27-2-30-1-5-2-9-5-12-2-3-4-7-20-23l-142-141c-15-16-19-19-22-21-4-2-8-4-12-5-4-1-8-1-30-1h-201c-22 0-27 0-30 1-5 1-9 3-13 5-3 2-6 5-22 21l-141 141c-16 16-19 20-21 23-2 3-4 8-5 12-1 3-1 8-1 30v201c0 22 0 26 1 30 1 4 3 8 5 12 2 3 5 7 20 22l1 1 141 141 0 0 1 0c15 16 18 19 21 21 4 2 8 4 13 5 3 1 8 1 30 1h200z" horiz-adv-x="1042" />

<glyph glyph-name="open-book-alt" unicode="&#xe87c;" d="M929 659c-7 16-20 28-36 36-18 9-36 9-63 9h-108c-77 0-115 0-151-18-19-10-35-23-49-38-14 15-30 28-49 38-36 18-74 18-151 18h-108c-27 0-45 0-63-9-16-8-29-21-37-36-9-18-9-36-9-63v-367c0-27 0-45 9-63 8-15 21-28 37-36 18-9 36-9 63-9h118c35 0 52 0 64-4 11-3 21-8 29-15 9-8 19-23 38-52l24-35c2-2 3-5 6-7 3-3 6-5 10-8 2-1 4-2 7-3 4-1 8-1 12-1 4 0 8 0 12 1 3 1 5 3 8 4 3 2 6 4 9 7 2 2 4 5 6 7l23 35c20 30 30 44 39 52 8 7 18 12 29 15 11 4 29 4 64 4h118c27 0 45 0 62 9 16 8 29 20 37 36 9 18 9 36 9 63v367c0 27 0 45-9 63h0z m-449-495c0 0-1 2-3 3-17 13-36 24-57 31-24 7-47 7-89 7h-118c-11 0-23 0-24-2-1 3-1 15-1 27v366c0 12 0 24-2 24 3 1 16 1 27 1h109c61 0 95 0 112-9 16-8 29-21 37-37 9-17 9-51 9-112v-299h0z m350 40h-118c-41 0-65 0-88-7-21-6-41-17-58-31-1-1-2-1-3-2v299c0 61 0 95 9 112 8 16 21 29 37 37 18 9 51 9 113 9h108c12 0 24 0 24 2 1-3 1-16 1-27v-367c0-11 0-24 2-24-3-1-15-1-27-1h0z" horiz-adv-x="1042" />

<glyph glyph-name="open-book" unicode="&#xe87d;" d="M493 454c0 75 0 112-15 141-13 25-33 45-58 58-29 15-66 15-141 15h-116c-24 0-37 0-46-5-9-5-16-11-20-20-5-9-5-22-5-47v-391c0-25 0-38 5-47 4-9 11-15 20-20 9-4 21-4 46-4h126c42 0 63 0 82-6 17-5 33-14 46-25 15-12 27-30 50-64 8-12 26-6 26 8v407z m58 0c0 75 0 112 15 141 13 25 33 45 58 58 29 15 66 15 141 15h116c24 0 37 0 46-5 9-5 16-11 20-20 5-9 5-22 5-47v-391c0-25 0-38-5-47-4-9-11-15-20-20-9-4-22-4-46-4h-126c-42 0-63 0-82-6-17-5-33-14-46-25-15-12-27-30-50-64-8-12-26-6-26 8v407z" horiz-adv-x="1042" />

<glyph glyph-name="paper-plane-alt" unicode="&#xe87e;" d="M897 385c-12 26-36 38-79 61l-512 271c-55 29-82 44-113 37-26-6-47-25-58-50-12-28-2-58 18-117l76-230c2-3 2-6 3-6-1-2-1-5-3-9l-76-229c-20-59-30-89-18-118 11-25 32-43 58-49 5-1 10-2 15-2 26 0 53 14 98 39l512 271c43 23 67 35 79 61 10 22 10 48 0 70v0z m-118-57l-512-271c-20-11-41-22-53-27 3 13 10 35 18 57l74 222h260c22 0 41 18 41 41 0 23-19 42-41 42h-260l-74 222c-7 21-15 44-18 56 12-5 33-16 53-27l512-271c16-8 32-17 40-22-8-6-24-14-40-22v0z" horiz-adv-x="1042" />

<glyph glyph-name="paper-plane" unicode="&#xe87f;" d="M875 306c35 19 35 69 0 88l-681 366c-46 25-99-19-83-69l88-276c4-14 17-23 32-23l261 0c23 0 42-19 42-42 0-23-19-42-42-42l-261 0c-15 0-28-9-32-23l-88-276c-16-50 37-94 83-69l681 366z" horiz-adv-x="1042" />

<glyph glyph-name="paperclip" unicode="&#xe880;" d="M672 717c-31 0-61-13-83-34l-364-365c-37-36-57-86-57-138 0-52 20-102 57-139 37-37 87-58 139-58 52 0 102 21 139 58l364 364c16 16 42 16 59 0 16-16 16-43 0-59l-365-364c-52-53-123-82-197-82-74 0-145 29-198 82-52 52-82 123-82 198 0 74 30 145 82 197l364 364c38 38 89 59 142 59 53 0 104-21 141-59 38-37 59-88 59-141 0-53-21-104-59-142l-364-364c-23-23-54-35-86-35-32 0-62 12-85 35-23 23-36 54-36 86 0 32 13 62 36 85l336 336c17 16 43 16 59 0 16-16 16-43 0-59l-336-336c-7-7-11-16-11-26 0-10 4-20 11-27 7-7 16-11 26-11 10 0 20 4 27 11l365 364c21 22 34 52 34 83 0 31-13 61-34 83-22 21-52 34-83 34z" horiz-adv-x="1042" />

<glyph glyph-name="pencil-edit-alt" unicode="&#xe881;" d="M690 690c26 27 69 27 95 0l64-63c26-26 26-69 0-95l-495-496c-10-9-22-16-35-18l-134-27c-10-2-20 1-27 8-8 7-11 18-9 28l27 133c3 13 9 25 19 35l495 495z m52-43c-2 2-6 2-9 0l-41-42 72-72 42 42c2 2 2 6 0 9l-64 63z m-21-157l-73 72-410-411c-1 0-1-2-2-3l-17-88 88 18c1 0 2 1 3 1l411 411z" horiz-adv-x="1042" />

<glyph glyph-name="pencil-edit" unicode="&#xe882;" d="M616 601l137-138-450-450-123-13c-16-2-30 12-28 28l13 123 451 450z m222 20l-65 65c-20 20-52 20-72 0l-61-61 137-138 61 61c20 20 20 53 0 73z" horiz-adv-x="1042" />

<glyph glyph-name="pin" unicode="&#xe883;" d="M299 676c0 26 21 46 46 46h377c26 0 47-20 47-46 0-25-21-46-47-46h-37l21-187c78-36 139-101 139-183 0-23-18-39-39-39h-226v-184c0-6-2-12-5-17l-26-35c-8-10-23-10-30 0l-26 35c-4 5-6 11-6 17v184h-226c-22 0-39 16-39 39 0 81 60 147 138 183l21 187h-36c-25 0-46 21-46 46z" horiz-adv-x="1042" />

<glyph glyph-name="play" unicode="&#xe884;" d="M667 448c72-42 108-63 110-94 0-3 0-5 0-8-2-31-38-52-110-94l-233-137c-72-42-107-63-135-49-2 1-4 2-6 3-26 18-26 60-26 144l0 274c0 84 0 126 26 144 2 1 4 2 6 3 28 14 63-7 135-49l233-137z" horiz-adv-x="1042" />

<glyph glyph-name="puzzle" unicode="&#xe885;" d="M259-67c26 26 21 49 21 70 0 44 36 62 71 26l120-119c24-24 64-24 88 0l119 119c36 36 18 72-26 72-21 0-44-5-70 21-30 29-37 96 14 147 50 51 118 44 147 14 26-26 21-49 21-70 0-44 36-62 72-26l119 119c24 24 24 64 0 88l-119 119c-36 36-72 18-72-26 0-21 5-44-21-70-29-30-97-37-147 14-51 51-44 118-14 147 26 26 49 21 70 21 44 0 62 36 26 72l-119 119c-24 24-64 24-88 0l-120-119c-35-36-71-18-71 26 0 21 5 44-21 70-29 30-97 37-148-14-50-50-43-118-14-147 27-26 50-21 71-21 44 0 62-36 26-72l-119-119c-25-24-25-64 0-88l119-119c36-36 18-72-26-72-21 0-44 5-71-21-29-29-36-97 14-147 51-51 119-44 148-14z" horiz-adv-x="1042" />

<glyph glyph-name="record-circle" unicode="&#xe886;" d="M521-108c254 0 459 205 459 458 0 253-205 458-459 458-253 0-458-205-458-458 0-253 205-458 458-458z m375 458c0-207-167-375-375-375-207 0-375 168-375 375 0 207 168 375 375 375 208 0 375-168 375-375z m-375-266c147 0 266 119 266 266 0 147-119 266-266 266-146 0-266-119-266-266 0-147 120-266 266-266z" horiz-adv-x="1042" />

<glyph glyph-name="record-rec" unicode="&#xe887;" d="M153 538c53 0 93-9 118-28 26-18 38-47 38-85 0-17-3-32-10-45-7-13-16-23-27-33-11-8-23-16-36-21l116-164h-93l-93 144h-44v-144h-83v376h114z m-6-65h-25v-102h27c27 0 47 5 58 13 12 9 18 22 18 39 0 18-6 31-19 38-12 8-32 12-59 12z m479-311h-225v376h225v-65h-142v-83h132v-65h-132v-97h142v-66z m248 315c-32 0-56-11-73-34-17-23-25-54-25-94 0-40 8-71 23-93 16-22 41-33 75-33 16 0 32 2 48 5 16 4 33 9 52 15v-67c-17-7-34-11-51-15-17-3-36-4-57-4-40 0-73 8-99 23-26 16-46 39-58 68-13 29-19 63-19 102 0 37 7 71 22 100 14 29 35 52 62 69 27 16 61 24 100 24 19 0 39-2 58-7 20-4 39-11 57-19l-27-65c-15 7-30 13-45 18-14 5-29 7-43 7z" horiz-adv-x="1042" />

<glyph glyph-name="remove_minus" unicode="&#xe888;" d="M200 350c0 22 18 40 40 40h480c22 0 40-18 40-40 0-22-18-40-40-40h-480c-22 0-40 18-40 40z" horiz-adv-x="960" />

<glyph glyph-name="screenshare" unicode="&#xe889;" d="M874 765c1 0 3 0 5 0 3 0 7-1 13-1 12-2 37-7 58-29 22-21 27-46 29-58 0-6 1-10 1-13 0-2 0-4 0-5v-468c0-1 0-3 0-5 0-3-1-7-1-13-2-12-7-37-29-58-21-22-46-27-58-29-6-1-10-1-13-1-2 0-4 0-5 0h-705c-1 0-3 0-5 0-3 0-7 0-13 1-12 2-37 7-58 29-22 21-27 46-29 58-1 6-1 10-1 13 0 2 0 4 0 5v468c0 1 0 3 0 5 0 3 0 7 1 13 2 12 7 37 29 58 21 22 46 27 58 29 6 0 10 1 13 1 2 0 4 0 5 0h705z m-713-98c-2-1-2-4-2-8v-468c0-5 0-7 2-8 1-2 3-2 8-2h705c4 0 7 0 8 2 2 1 2 3 2 8v468c0 4 0 7-2 8-1 2-4 2-8 2h-705c-5 0-7 0-8-2z m106-684c0 27 22 49 49 49h410c26 0 48-22 48-49 0-26-22-48-48-48h-410c-27 0-49 22-49 48z" horiz-adv-x="1042" />

<glyph glyph-name="search" unicode="&#xe88a;" d="M438 683c-138 0-250-112-250-250 0-138 112-250 250-250 138 0 250 112 250 250 0 138-112 250-250 250z m-333-250c0 184 149 334 333 334 184 0 333-150 333-334 0-77-26-148-70-204l225-224c16-17 16-43 0-60-16-16-43-16-59 0l-225 225c-56-44-127-70-204-70-184 0-333 149-333 333z" horiz-adv-x="1042" />

<glyph glyph-name="select-multiple" unicode="&#xe88b;" d="M764 546c-16 16-42 16-59 0l-137-137-54 54c-16 16-42 16-59 0-16-16-16-43 0-59l84-83c16-17 42-17 59 0l166 166c17 17 17 43 0 59z m62 219c-15 2-34 2-56 2h-320c-22 0-41 0-57-2-16-1-33-4-48-12-24-12-43-31-55-55-8-15-11-32-12-48-2-16-2-35-2-57v-320c0-22 0-40 2-56 1-17 4-33 12-49 12-23 31-42 55-54 15-8 32-11 48-13 16-1 35-1 57-1h320c22 0 41 0 56 1 17 2 33 5 49 13 23 12 43 31 55 54 8 16 11 32 12 49 1 16 1 34 1 56l0 320c0 22 0 41-1 57-1 16-4 33-12 48-12 24-32 43-55 55-16 8-32 11-49 12z m-443-86c2 1 6 2 17 3 12 1 27 1 51 1h317c24 0 40 0 51-1 12-1 16-2 18-3 8-4 14-11 18-18 1-2 3-7 4-18 1-12 1-27 1-51l0-317c0-24 0-39-1-51-1-12-3-16-4-18-4-8-10-14-18-18-2-1-6-3-17-4-12-1-28-1-52-1h-317c-24 0-39 0-51 1-11 1-15 3-17 4-8 4-15 10-19 18-1 2-2 6-3 18-1 12-1 27-1 51v317c0 24 0 39 1 51 1 11 2 16 3 18 4 7 11 14 19 18z m-190-204c0 23-19 42-42 42-23 0-41-19-41-42l0-435c0-10 0-20 1-29 0-10 2-21 8-32 8-16 21-29 36-37 12-5 23-7 32-8 9-1 19-1 30-1l434 0c23 0 42 19 42 42 0 23-19 42-42 42h-433c-12 0-19 0-24 0l0 0 0 1c-1 5-1 11-1 24v433z" horiz-adv-x="1042" />

<glyph glyph-name="share" unicode="&#xe88c;" d="M534 755c-8 7-19 12-30 12-11 0-21-5-29-12l-125-125c-17-17-17-43 0-59 16-17 42-17 59 0l53 53v-316c0-23 19-41 42-41 23 0 42 18 42 41v316l54-53c16-17 42-17 59 0 16 16 16 42 0 59l-125 125z m-238-280l-2 0c-18 0-34 0-47-1-13-1-27-3-41-8-30-13-55-37-67-68-6-14-8-27-9-41-1-13-1-29-1-47v-203c0-22 0-41 1-57 2-16 5-33 13-48 12-24 31-43 54-55 16-8 33-11 49-12 16-2 35-2 56-2h404c22 0 41 0 56 2 17 1 33 4 49 12 23 12 43 31 55 55 8 15 11 32 12 48 1 16 1 35 1 57v203c0 18 0 34-1 47-1 14-3 27-8 41-13 30-37 55-68 68-14 5-27 7-41 8-13 1-29 1-47 1l-2 0c-23 0-41-19-41-42 0-23 18-41 41-41 20 0 33 0 43-1 10-1 13-2 15-2 10-5 18-13 23-23 0-2 1-5 2-15 1-10 1-23 1-43v-200c0-24 0-39-1-51-1-11-3-15-4-18-4-7-10-14-18-18-2-1-6-2-17-3-12-1-28-1-52-1h-400c-24 0-39 0-51 1-12 1-16 2-18 3-8 4-14 11-18 18-1 3-3 7-4 18 0 12-1 27-1 51v200c0 20 1 33 1 43 1 10 2 13 3 15 4 10 12 18 22 23 2 0 6 1 15 2 10 1 23 1 43 1 23 0 41 18 41 41 0 23-18 42-41 42z" horiz-adv-x="1042" />

<glyph glyph-name="shield-check" unicode="&#xe88d;" d="M659 442c16 17 16 43 0 59-17 17-43 17-59 0l-138-137-53 54c-17 16-43 16-59 0-17-16-17-43 0-59l83-83c16-17 43-17 59 0l167 166z m103 320c-15 2-34 2-56 2h-403c-22 0-41 0-57-2-16-1-33-4-49-12-23-12-42-31-54-55-8-15-11-32-13-48-1-16-1-35-1-57v-167c0-299 227-432 319-474l0 0c11-4 19-8 35-11 7-1 15-2 21-2 6 0 14 1 21 2 16 3 25 6 34 11l1 0c92 42 319 175 319 474v167c0 22 0 41-1 57-1 16-4 33-12 48-12 24-32 43-55 55-16 8-32 11-49 12z m-527-86c2 1 6 2 18 3 12 1 27 1 51 1h400c24 0 40 0 51-1 12-1 16-2 18-3 8-4 14-11 18-19 1-2 3-6 4-17 1-12 1-27 1-51v-166c0-247-186-360-270-398l-1 0c-5-2-6-3-8-3-1-1-2-1-6-2 0 0 0 0-1 0-2 0-4 0-6 0-2 0-4 0-5 0-1 0-2 0-2 0-3 1-5 1-6 2-1 0-3 1-8 3-84 38-271 150-271 398v166c0 24 1 39 1 51 1 11 3 15 4 17 4 8 10 15 18 19z" horiz-adv-x="1042" />

<glyph glyph-name="shield-warning" unicode="&#xe88e;" d="M546 514c0 23-19 41-42 41-23 0-42-18-42-41v-167c0-23 19-42 42-42 23 0 42 19 42 42v167z m-44-250c-23 0-42-19-42-42v-4c0-11 5-22 13-30 7-8 18-12 29-12l4 0c23 0 42 19 42 42v4c0 23-19 42-42 42h-4z m260 498c-15 2-34 2-56 2h-403c-22 0-41 0-57-2-16-1-33-4-49-12-23-12-42-31-54-55-8-15-11-32-13-48-1-16-1-35-1-57v-167c0-299 227-432 319-474l0 0c11-4 19-8 35-11 7-1 15-2 21-2 6 0 14 1 21 2 16 3 25 6 34 11l1 0c92 42 319 175 319 474v167c0 22 0 41-1 57-1 16-4 33-12 48-12 24-32 43-55 55-16 8-32 11-49 12z m-527-86c2 1 6 2 18 3 12 1 27 1 51 1h400c24 0 40 0 51-1 12-1 16-2 18-3 8-4 14-11 18-19 1-2 3-6 4-17 1-12 1-27 1-51v-166c0-247-186-360-270-398l-1 0c-5-2-6-3-8-3-1-1-2-1-6-2 0 0 0 0-1 0-2 0-4 0-6 0-2 0-4 0-5 0-1 0-2 0-2 0-3 1-5 1-6 2-1 0-3 1-8 3-84 38-271 150-271 398v166c0 24 1 39 1 51 1 11 3 15 4 17 4 8 10 15 18 19z" horiz-adv-x="1042" />

<glyph glyph-name="show-eye" unicode="&#xe88f;" d="M521 558c-129 0-248-91-321-163-20-21-22-24-25-32 0 0 0 0 0-1-1-1-1-2-1-3 0-3 0-6 0-9 0-3 0-6 0-9 0-1 0-2 1-3 0-1 0-1 0-1 3-8 5-11 25-32 73-72 192-163 321-163 130 0 249 91 322 163 20 21 22 24 25 32 0 0 0 0 0 1 0 1 1 2 1 3 0 3 0 6 0 9 0 3 0 6 0 9 0 1-1 2-1 3 0 1 0 1 0 1-3 8-5 11-25 32-73 72-192 163-322 163z m-379-104c75 75 215 188 379 188 165 0 305-113 380-188 1-1 2-2 3-3 17-17 34-33 43-62 4-13 6-27 6-39 0-12-2-26-6-39-9-28-26-45-43-62-1-1-2-2-3-3-75-75-215-188-380-188-164 0-304 113-379 188-1 1-2 2-3 3-18 17-34 34-43 62-4 13-6 27-6 39 0 12 2 26 6 39 9 29 25 45 43 62 1 1 2 2 3 3z m379-62c-23 0-41-19-41-42 0-23 18-42 41-42 23 0 42 19 42 42 0 23-19 42-42 42z m-125-42c0 69 56 125 125 125 69 0 125-56 125-125 0-69-56-125-125-125-69 0-125 56-125 125z" horiz-adv-x="1042" />

<glyph glyph-name="square-check" unicode="&#xe890;" d="M697 458c15 17 14 43-3 59-18 15-44 13-59-4l-191-215-80 90c-16 17-42 19-59 4-17-16-19-42-4-59l112-125c7-9 19-14 31-14 12 0 23 5 31 14l222 250z m102 318c-16 1-35 1-56 1h-487c-22 0-41 0-57-1-16-1-32-4-48-12-24-12-43-32-55-55-8-16-11-32-12-49-1-15-1-34-1-56v-487c0-22 0-41 1-56 1-17 4-33 12-49 12-24 31-43 55-55 16-8 32-11 48-12 16-1 35-1 57-1h487c22 0 40 0 56 1 16 1 33 4 49 12 23 12 42 31 54 55 8 16 11 32 13 49 1 15 1 34 1 56v487c0 22 0 41-1 56-2 17-5 33-13 49-12 23-31 43-54 55-16 8-33 11-49 12z m-610-87c2 1 6 3 17 4 12 1 28 1 52 1h483c24 0 39 0 51-1 12-1 16-3 18-4 8-4 14-10 18-18 1-2 3-6 4-17 1-12 1-28 1-52v-483c0-24 0-40-1-52-1-11-3-15-4-17-4-8-10-14-18-18-2-1-6-3-18-4-12-1-27-1-51-1h-484c-24 0-39 0-51 1-11 1-15 3-17 4-8 4-15 10-19 18-1 2-2 6-3 17-1 12-1 28-1 52v483c0 24 0 40 1 51 1 12 2 16 3 18 4 8 11 14 19 18z" horiz-adv-x="1042" />

<glyph glyph-name="suitcase-alt" unicode="&#xe891;" d="M317 558c20 95 104 167 204 167 101 0 185-72 205-167l39 0c22 0 41 0 56-1 17-1 33-4 49-12 23-12 42-31 54-55 9-16 11-32 13-48 1-16 1-35 1-57v-237c0-22 0-41-1-56-2-17-4-33-13-49-12-23-31-42-54-54-16-8-32-11-49-13-15-1-34-1-56-1h-487c-22 0-41 0-56 1-17 2-33 5-49 13-24 12-43 31-55 54-8 16-11 32-12 49-1 16-1 34-1 56v237c0 22 0 41 1 57 1 16 4 32 12 48 12 24 31 43 55 55 16 8 32 11 49 12 15 1 34 1 56 1l39 0z m322 0c-17 49-63 84-118 84-54 0-100-35-117-84h235z m-411-84c-11-1-15-2-17-3-8-4-14-11-18-19-1-2-3-6-4-17-1-12-1-28-1-52h664l0 0 3 0v1c0 23 0 39-1 51-1 11-3 15-4 17-4 8-10 14-18 19-2 1-6 2-18 3-11 1-27 1-51 1h-483c-24 0-40 0-52-1z m627-174l-667 0v-150c0-24 0-39 1-51 1-12 3-16 4-18 4-8 10-14 18-18 2-1 6-3 17-4 12-1 28-1 52-1h483c24 0 40 0 51 1 12 1 16 3 18 4 8 4 14 10 18 18 1 2 3 6 4 18 1 11 1 27 1 51v150z" horiz-adv-x="1042" />

<glyph glyph-name="suitcase" unicode="&#xe892;" d="M317 564c20 95 104 167 204 167 101 0 185-72 205-167h39c22 0 41 0 56-1 17-1 33-4 49-12 23-12 42-31 54-55 9-16 11-32 13-49 1-9 1-20 1-32l-13 0-1 0h-819c0 12 0 23 1 32 1 17 4 33 12 49 12 23 31 43 55 55 16 8 32 11 49 12 15 1 34 1 56 1h39z m322 0c-17 49-63 84-118 84-54 0-100-35-117-84h235z m-534-215v-195c0-22 0-41 1-56 1-17 4-33 12-49 12-23 31-43 55-55 16-8 32-11 49-12 15-1 34-1 56-1h487c22 0 41 0 56 1 17 1 33 4 49 12 23 12 42 32 54 55 9 16 11 32 13 49 1 15 1 34 1 56v195l-833 0z" horiz-adv-x="1042" />

<glyph glyph-name="sun-brightness" unicode="&#xe893;" d="M506 808c23 0 42-18 42-41v-84c0-23-19-41-42-41-23 0-41 18-41 41v84c0 23 18 41 41 41z m-321-137c16 16 43 16 59 0l59-59c16-16 16-42 0-59-16-16-43-16-59 0l-59 59c-16 17-16 43 0 59z m648 0c17-16 17-42 0-59l-59-59c-16-16-42-16-58 0-17 17-17 43 0 59l58 59c17 16 43 16 59 0z m-327-154c-92 0-166-75-166-167 0-92 74-167 166-167 92 0 167 75 167 167 0 92-75 167-167 167z m-250-167c0 138 112 250 250 250 138 0 250-112 250-250 0-138-112-250-250-250-138 0-250 112-250 250z m-208 0c0 23 19 42 42 42h83c23 0 42-19 42-42 0-23-19-42-42-42h-83c-23 0-42 19-42 42z m750 0c0 23 19 42 42 42h83c23 0 42-19 42-42 0-23-19-42-42-42h-83c-23 0-42 19-42 42z m-495-209c16-16 16-43 0-59l-59-59c-16-16-43-16-59 0-16 16-16 43 0 59l59 59c16 16 43 16 59 0z m413 0c16 16 42 16 58 0l59-59c17-16 17-43 0-59-16-16-42-16-59 0l-58 59c-17 16-17 43 0 59z m-210-83c23 0 42-18 42-41v-84c0-23-19-41-42-41-23 0-41 18-41 41v84c0 23 18 41 41 41z" horiz-adv-x="1042" />

<glyph glyph-name="table" unicode="&#xe894;" d="M301 754h428c24 0 44 0 60-1 18-2 35-5 52-14 25-12 45-33 58-58 8-16 12-34 13-51 1-17 1-37 1-60v-429c0-23 0-43-1-60-1-17-5-35-13-51-13-25-33-46-58-59-17-8-34-11-52-13-16-1-36-1-60-1h-428c-24 0-44 0-60 1-18 2-35 5-52 13-25 13-45 34-58 59-9 16-12 34-13 51-1 17-1 37-1 60v429c0 23 0 43 1 60 1 17 4 35 13 51 13 25 33 46 58 58 17 9 34 12 52 14 16 1 36 1 60 1z m-53-90c-12-1-17-2-19-3-8-5-15-11-19-20-1-2-3-6-4-18-1-13-1-29-1-55v-35h266v132h-169c-25 0-42 0-54-1z m311 1v-132h266v35c0 26 0 42-1 55-1 12-3 16-4 18-4 9-11 15-19 20-3 1-7 2-19 3-13 1-29 1-55 1h-168z m266-221h-266v-177h266v177z m0-266h-266v-132h169c25 0 42 0 54 1 12 1 16 2 19 3 8 5 15 11 19 20 1 2 3 6 4 18 1 13 1 29 1 55v35z m-354-132v132h-266v-35c0-26 0-42 1-55 1-12 3-16 4-18 4-9 11-15 19-20 2-1 7-2 19-3 12-1 29-1 54-1h169z m-266 221h266v177h-266v-177z" horiz-adv-x="1042" />

<glyph glyph-name="telephone-end" unicode="&#xe895;" d="M877 683l-149 35c-17 4-33-5-40-20l-69-161c-6-15-2-31 10-41l87-71c-19-40-43-78-71-113l-513 370c-18 13-44 9-58-10-13-19-9-45 10-58l826-595c19-14 45-10 58 9 14 19 10 45-9 58l-202 145c92 115 147 260 147 419 0 16-11 30-27 33z m-416-513c21 10 42 21 62 34l119-85c-113-86-254-138-406-138-16 0-30 11-34 27l-34 150c-4 16 4 33 20 40l161 69c14 6 31 2 40-10l72-87z" horiz-adv-x="1042" />

<glyph glyph-name="telephone" unicode="&#xe896;" d="M890 683l-150 35c-16 4-33-5-40-20l-69-161c-6-15-2-31 10-41l88-71c-52-111-143-203-256-255l-71 87c-10 12-26 16-40 10l-162-69c-15-7-24-24-20-40l35-150c3-16 17-27 33-27 369 0 669 299 669 669 0 16-11 30-27 33z" horiz-adv-x="1042" />

<glyph glyph-name="tiles" unicode="&#xe897;" d="M488 658c0 23-18 42-41 42h-370c-24 0-42-19-42-42v-236c0-23 18-42 42-42l370 0c23 0 41 19 41 42v236z m0-380c0 23-18 42-41 42l-370 0c-24 0-42-19-42-42v-236c0-23 18-42 42-42h370c23 0 41 19 41 42v236z m505 380c0 23-19 42-42 42h-370c-23 0-42-19-42-42v-236c0-23 19-42 42-42l370 0c23 0 42 19 42 42v236z m0-380c0 23-19 42-42 42l-370 0c-23 0-42-19-42-42v-236c0-23 19-42 42-42h370c23 0 42 19 42 42v236z" horiz-adv-x="1042" />

<glyph glyph-name="trash-alt" unicode="&#xe898;" d="M361 723c0 28 21 52 48 52h263c26 0 47-24 47-52 0-29-21-52-47-52h-263c-27 0-48 23-48 52z m-219-131c0 28 21 51 47 51h702c26 0 47-23 47-51 0-29-21-52-47-52h-43l-19-475c-1-80-66-138-135-138h-307c-70 0-135 58-135 138l-20 475h-43c-26 0-47 23-47 52z m185-52l19-472v-1c0-15 14-36 41-36h307c26 0 40 21 40 36v1l20 472h-427z" horiz-adv-x="1042" />

<glyph glyph-name="trash" unicode="&#xe899;" d="M827 697h-186l-14 29c-3 7-8 12-14 15-6 4-13 6-20 6h-177c-7 0-14-2-20-5-5-4-10-9-13-16l-15-29h-186c-6 0-13-2-17-7-5-4-8-11-8-17v-50c0-7 3-13 8-18 4-4 11-7 17-7h645c7 0 13 3 18 7 5 5 7 11 7 18v50c0 6-2 13-7 17-5 5-11 7-18 7z m-587-674c1-19 9-37 23-50 14-13 32-20 51-20h381c19 0 37 7 51 20 14 13 22 31 24 50l32 526h-595l33-526z" horiz-adv-x="1042" />

<glyph glyph-name="triangle-warning" unicode="&#xe89a;" d="M521 638c-11 5-23 5-34 0-2-1-7-4-19-20-11-16-24-39-43-72l-202-350c-20-34-33-56-41-74-8-18-8-24-8-26 1-12 7-23 17-30 2-1 7-4 27-6 19-2 45-2 84-2h404c39 0 65 0 84 2 20 2 26 5 27 6 10 7 16 18 17 30 0 2 0 8-8 26-8 18-21 40-40 74l-202 350c-20 33-33 56-44 72-11 16-17 19-19 20z m-68 76c33 15 70 15 102 0 23-10 39-28 53-48 14-19 29-45 47-77l204-353c18-31 33-57 43-79 10-22 18-45 15-70-4-35-22-67-51-88-20-15-44-20-68-22-24-2-54-2-90-2h-408c-36 0-66 0-90 2-24 2-48 7-68 22-29 21-47 53-51 88-2 25 5 48 15 70 10 22 25 48 44 79l204 353c18 32 33 58 46 77 14 20 30 38 53 48z m51-197c23 0 42-19 42-42v-167c0-23-19-41-42-41-23 0-42 18-42 41v167c0 23 19 42 42 42z m-44-334c0 23 19 42 42 42h4c23 0 42-19 42-42v-4c0-23-19-41-42-41l-4 0c-11 0-22 4-29 12-8 8-13 18-13 29v4z" horiz-adv-x="1042" />

<glyph glyph-name="unfold-less" unicode="&#xe89b;" d="M292 658c15 16 41 16 56 0l132-131 132 131c15 16 41 16 56 0 16-15 16-41 0-56l-160-160c-15-16-41-16-56 0l-160 160c-16 15-16 41 0 56z m188-485l-132-131c-15-16-41-16-56 0-16 15-16 41 0 56l160 160c15 16 41 16 56 0l160-160c16-15 16-41 0-56-15-16-41-16-56 0l-132 131z" horiz-adv-x="960" />

<glyph glyph-name="unfold-more" unicode="&#xe89c;" d="M452 658c15 16 41 16 56 0l160-160c16-15 16-41 0-56-15-16-41-16-56 0l-132 131-132-131c-15-16-41-16-56 0-16 15-16 41 0 56l160 160z m-160-400c15 16 41 16 56 0l132-131 132 131c15 16 41 16 56 0 16-15 16-41 0-56l-160-160c-15-16-41-16-56 0l-160 160c-16 15-16 41 0 56z" horiz-adv-x="960" />

<glyph glyph-name="unlock" unicode="&#xe89d;" d="M811 430h-458v158c0 90 71 164 160 165 89 0 163-72 163-161v-41c0-23 17-40 41-40 22 0 40 17 40 40v37c0 135-107 244-242 246-135 0-243-109-243-242v-162h-53c-46 0-81-37-81-81v-377c0-46 35-81 81-81h592c44 0 81 35 81 81v377c0 44-37 81-81 81z m0-458h-592v377h592v-377z m-296 54c25 0 47 20 47 47v175c0 26-22 47-47 47-27 0-47-21-47-47v-175c0-27 20-47 47-47z" horiz-adv-x="1000" />

<glyph glyph-name="user-agent-alt" unicode="&#xe89e;" d="M113 198c10 0 20 4 27 12 7 7 11 16 11 26v38c0 209 170 379 379 379 209 0 379-170 379-379v-38c0-50-20-98-56-134-35-35-83-55-134-55h-76c0 20-7 39-22 53-14 15-33 23-53 23h-76c-20 0-39-8-54-23-14-14-22-33-22-53 0-20 8-40 22-54 15-14 34-22 54-22h227c71 0 138 28 188 78 49 50 77 117 78 187v38c0 251-204 455-455 455-251 0-455-204-455-455v-38c0-10 4-19 11-26 7-8 17-12 27-12z m272-44c28 28 67 44 107 44h76c26 0 52-7 75-20 24-13 43-32 56-55h20c30 0 59 12 81 33 21 21 33 50 33 80v38c0 81-32 158-89 215-57 56-134 88-214 88-81 0-158-32-215-88-56-57-88-134-88-215 0-95 45-180 114-235 0 1 0 2 0 3 0 2-1 3-1 5 0 40 16 79 45 107z" horiz-adv-x="1042" />

<glyph glyph-name="user-agent" unicode="&#xe89f;" d="M284 470c6 0 11 3 15 6 3 4 6 9 6 14v21c0 110 90 200 200 200 111 0 201-90 201-200v-21c0-26-11-52-30-70-19-19-44-30-71-30h-40c0 11-4 21-11 29-8 7-18 11-29 11h-40c-11 0-21-4-28-11-8-8-12-18-12-29 0-10 4-21 12-28 7-8 17-12 28-12h120c38 0 73 15 100 41 26 27 41 62 41 99v21c0 132-108 240-241 240-133 0-241-108-241-240v-21c0-5 3-10 6-14 4-3 9-6 14-6z m144-23c15 15 36 23 57 23h40c14 0 28-3 40-10 12-7 23-18 30-30h10c16 0 32 7 43 18 11 11 18 27 18 42v21c0 42-17 83-47 113-31 30-71 47-114 47-42 0-83-17-113-47-30-30-47-71-47-113 0-51 24-96 60-125 0 0 0 1 0 2 0 1 0 1 0 2 0 21 8 42 23 57z m176-143h12c92 0 167-75 167-167v-41c0-38-31-70-70-70h-416c-38 0-69 32-69 70v41c0 92 75 167 166 167h12c31-15 64-23 99-23 36 0 69 8 99 23z" horiz-adv-x="1042" />

<glyph glyph-name="user-avatar" unicode="&#xe8a0;" d="M538 807c-252 0-456-205-456-457 0-252 204-457 456-457 253 0 457 205 457 457 0 252-204 457-457 457z m0-177c90 0 162-73 162-162 0-90-72-162-162-162-89 0-162 72-162 162 0 89 73 162 162 162z m0-634c-108 0-205 50-269 126 34 65 102 110 181 110 4 0 9-1 13-2 24-8 49-12 75-12 27 0 52 4 76 12 4 1 8 2 13 2 79 0 146-45 181-110-65-76-162-126-270-126z" horiz-adv-x="1042" />

<glyph glyph-name="user-single" unicode="&#xe8a1;" d="M513 350c89 0 161 72 161 162 0 89-72 162-161 162-90 0-162-73-162-162 0-90 72-162 162-162z m111-46h-12c-30-15-64-23-99-23-36 0-69 8-99 23h-12c-92 0-167-75-167-167v-41c0-38 31-70 70-70h416c38 0 69 32 69 70v41c0 92-74 167-166 167z" horiz-adv-x="1042" />

<glyph glyph-name="users" unicode="&#xe8a2;" d="M181 396c51 0 92 42 92 93 0 51-41 92-92 92-51 0-93-41-93-92 0-51 42-93 93-93z m647 0c51 0 92 42 92 93 0 51-41 92-92 92-51 0-93-41-93-92 0-51 42-93 93-93z m46-46h-93c-25 0-48-10-65-27 59-32 100-89 109-158h95c26 0 46 21 46 46v47c0 51-41 92-92 92z m-370 0c90 0 162 72 162 162 0 89-72 162-162 162-89 0-162-73-162-162 0-90 73-162 162-162z m111-46h-12c-30-15-63-23-99-23-35 0-69 8-99 23h-12c-92 0-166-75-166-167v-41c0-38 31-70 69-70h416c38 0 69 32 69 70v41c0 92-74 167-166 167z m-323 19c-17 17-40 27-65 27h-93c-51 0-92-41-92-92v-47c0-25 21-46 46-46h95c9 69 51 126 109 158z" horiz-adv-x="1042" />

<glyph glyph-name="video-slash" unicode="&#xe8a3;" d="M130 685c-19 13-45 9-58-10-14-19-10-45 9-58l52-38c0 0 0 0 0 0l523-377c0 0 0 1 0 1l252-181c18-14 44-10 58 9 13 19 9 45-10 58l-57 41c2 1 3 2 4 3 19 14 19 48 19 117v200c0 69 0 103-19 117-2 1-4 3-6 4-21 10-46-8-97-45l-101-72v-179l-43 30v168c0 63 0 95-17 116-4 4-7 8-11 11-21 17-53 17-116 17h-245c-17 0-31 0-43 0l-94 68z m-8-201l0-257c0-63 0-95 18-116 3-4 6-7 10-10 21-18 53-18 117-18h245c63 0 95 0 116 18 4 3 7 6 11 10 0 0 0 0 0 1l-517 372z" horiz-adv-x="1042" />

<glyph glyph-name="video" unicode="&#xe8a4;" d="M140 589c-18-21-18-53-18-116v-246c0-63 0-95 18-116 3-4 6-7 10-10 21-18 53-18 117-18h245c63 0 95 0 116 18 4 3 7 6 11 10 17 21 17 53 17 116v246c0 63 0 95-17 116-4 4-7 8-11 11-21 17-53 17-116 17h-245c-64 0-96 0-117-17-4-3-7-7-10-11z m660-415l-101 72v208l101 72c51 37 76 55 97 45 2-1 4-3 6-4 19-14 19-48 19-117v-200c0-69 0-103-19-117-2-1-4-3-6-4-21-10-46 8-97 45z" horiz-adv-x="1042" />

<glyph glyph-name="wavy-check" unicode="&#xe8a5;" d="M463 326l137 137h1c16 16 42 16 59 0 16-17 16-43 0-59l-167-167c-8-8-19-12-30-12-11 0-21 4-29 12l-84 84c-10 10-14 25-11 38 2 8 6 15 11 20 17 17 43 17 59 0l54-53z m386 154l43-51c39-46 39-112 0-158l-43-51c-6-6-9-14-9-22l-6-66c-5-60-52-107-112-112l-66-5c-3-1-6-1-9-2-5-2-9-4-13-7l-51-44c-23-19-51-29-79-29-11 0-23 2-34 5-16 5-31 13-45 24l-50 44c-6 5-14 8-22 9l-67 5c-60 5-107 52-111 112l-6 66c0 5-2 9-3 13-2 4-4 6-6 9l-43 51c-40 46-40 112 0 158l43 51c5 6 8 13 9 21l6 67c5 60 51 107 111 112l67 5c8 1 15 4 22 9l50 44c46 39 112 39 158 0l51-44c3-3 7-5 11-6 3-2 7-2 11-3l66-5c60-5 108-52 112-112l6-67c0-8 3-15 9-21z m-64-206l44 51h1c12 14 12 35 0 50l-44 51c-16 19-26 43-29 69l-5 66c-1 19-16 34-35 35l-67 6c-14 1-29 5-42 11-10 5-19 11-27 18l-51 43c-7 6-16 9-25 9-8 0-18-3-25-9l-50-43c-20-17-44-27-70-29l-66-6c-19-1-34-16-36-35l-5-66c-2-26-12-50-29-69l-43-51c-13-14-12-35 0-50l43-51c17-19 27-43 29-69l5-67c2-18 17-33 35-35l67-5c19-1 37-7 52-17 6-3 12-7 17-12l51-43c14-12 35-12 50 0l50 43c20 17 44 27 70 29l66 5c19 2 34 17 35 35l6 67c2 26 12 50 28 69z" horiz-adv-x="1042" />

<glyph glyph-name="wavy-warning" unicode="&#xe8a6;" d="M504 290c23 0 41 19 41 41v167c0 23-18 42-41 42-23 0-42-19-42-42v-167c0-22 19-41 42-41z m-2-42c-23 0-42-23-42-46 0-23 23-41 46-41 23 0 42 18 42 41v4c0 23-23 42-46 42z m346 232l44-51c39-46 39-112 0-158l-44-51c-5-6-8-14-9-21l-5-67c-5-60-52-107-112-112l-67-5c-7-1-15-4-21-9l-51-44c-23-19-51-29-79-29-28 0-56 10-79 29l-51 44c-6 5-14 8-21 9l-67 5c-60 5-107 52-112 112l-5 67c-1 7-4 15-9 21l-44 51c-38 46-38 112 0 158l44 51c5 6 8 13 9 21l5 67c5 60 52 107 112 112l67 5c7 1 15 4 21 9l51 44c46 39 112 38 158 0l51-44c6-5 14-8 21-9l67-5c60-5 107-52 112-112l5-67c1-7 4-15 9-21z m-63-206l43 51h1c12 14 12 35 0 50l-44 51c-16 19-26 43-28 69l-6 66c-1 19-16 34-35 35l-66 6c-26 2-50 12-70 29l-50 43c-8 6-17 9-25 9-9 0-18-3-25-9l-51-43c-20-17-44-27-69-29l-67-6c-19-1-34-16-35-35l-6-66c-2-26-12-50-29-69l-43-51c-12-14-12-35 0-50l43-51c17-19 27-43 29-69l6-66c1-19 16-34 35-35l66-6c26-2 50-12 69-29l51-43c15-12 36-12 50 0l51 43c20 17 43 27 69 29l67 6c19 1 33 16 35 35l5 66c2 26 12 50 29 69z" horiz-adv-x="1042" />

<glyph glyph-name="wifi-1" unicode="&#xe8a7;" d="M513 8c38 0 69 31 69 70 0 38-31 69-69 69-39 0-70-31-70-69 0-39 31-70 70-70z" horiz-adv-x="1042" />

<glyph glyph-name="wifi-2" unicode="&#xe8a8;" d="M381 187c84 65 192 65 276 0 18-15 45-11 59 7 14 18 10 44-8 58-114 89-264 89-378 0-19-14-22-40-8-58 14-18 40-22 59-7z m208-109c0-39-32-70-70-70-39 0-70 31-70 70 0 38 31 69 70 69 38 0 70-31 70-69z" horiz-adv-x="1042" />

<glyph glyph-name="wifi-3" unicode="&#xe8a9;" d="M261 327c161 124 368 124 528 0 18-14 44-10 59 8 14 18 10 44-8 58-190 147-439 147-630 0-18-14-21-40-7-58 14-18 40-22 58-8z m126-140c84 65 192 65 277 0 18-15 44-11 58 7 14 18 11 44-7 58-115 89-265 89-379 0-18-14-22-40-8-58 14-18 41-22 59-7z m208-109c0-39-31-70-70-70-38 0-70 31-70 70 0 38 32 69 70 69 39 0 70-31 70-69z" horiz-adv-x="1042" />

<glyph glyph-name="wifi-4" unicode="&#xe8aa;" d="M923 471c-238 184-545 184-783 0-18-14-44-10-58 8-14 18-11 44 7 58 268 207 617 207 885 0 18-14 21-40 7-58-14-18-40-22-58-8z m-128-144c-160 124-367 124-527 0-19-14-45-10-59 8-14 18-11 44 8 58 190 147 439 147 629 0 19-14 22-40 8-58-14-18-40-22-59-8z m-402-140c84 65 193 65 277 0 18-15 44-11 58 7 14 18 11 44-7 58-114 89-265 89-379 0-18-14-21-40-7-58 14-18 40-22 58-7z m208-109c0-39-31-70-70-70-38 0-69 31-69 70 0 38 31 69 69 69 39 0 70-31 70-69z" horiz-adv-x="1042" />

<glyph glyph-name="wifi-none" unicode="&#xe8ab;" d="M903 487c15-15 15-40 0-55-15-15-40-15-55 0l-50 51-51-51c-15-15-40-15-55 0-15 15-15 40 0 55l51 51-51 50c-15 15-15 40 0 55 15 15 40 15 55 0l51-50 50 50c15 15 40 15 55 0 15-15 15-40 0-55l-50-50 50-51z m-250-96c0 0 4 3 3 5-25 24-33 59-25 90-150 41-312 10-446-93-18-14-21-40-7-58 14-18 40-22 58-7 126 96 279 118 417 63z m-23 204c-5 28 2 58 22 80-202 46-416 0-594-138-18-14-22-40-8-58 15-18 41-22 59-8 156 121 344 162 521 124l0 0z m-130-448c-38 0-69-31-69-69 0-39 31-70 69-70 39 0 70 31 70 70 0 38-31 69-70 69z m-189 105c-18-14-22-40-8-58 15-18 41-22 59-8 84 65 192 65 276 0 19-14 45-10 59 8 14 18 11 44-8 58-114 89-264 89-379 0h1z" horiz-adv-x="1000" />

<glyph glyph-name="wifi-slash" unicode="&#xe8ac;" d="M173 746c17 15 43 15 59-2l77-80c215 63 448 21 639-127 19-14 22-40 8-58-14-18-40-22-58-8-158 122-345 163-523 123l87-92c125 11 251-25 359-109 18-14 22-40 8-58-14-18-41-22-59-8-70 55-149 85-229 92l277-294c16-16 15-43-2-58-17-16-43-16-59 1l-585 619c-16 16-15 43 1 59z m333-738c39 0 70 31 70 70 0 38-31 69-70 69-38 0-69-31-69-69 0-39 31-70 69-70z m-391 463c30 23 60 43 91 60l-59 62c-28-16-56-35-83-56-18-14-21-40-7-58 14-18 40-22 58-8z m77-78c29 23 59 42 90 57l61-64c-35-14-69-34-101-59-18-14-44-10-58 8-14 18-11 44 8 58z m125-141c32 25 66 43 102 54l67-72c-41-3-82-19-118-47-18-15-44-11-58 7-15 18-11 44 7 58z" horiz-adv-x="1042" />

<glyph glyph-name="wifi" unicode="&#xe8ad;" d="M604 649c0 37-30 66-66 66-37 0-67-29-67-66v-371c0-37 30-67 67-67 36 0 66 30 66 67v371z m55-52v84c113-20 222-68 321-144 18-14 21-40 7-58-14-18-40-22-58-8-83 65-175 106-270 126z m-243 84c-112-20-222-68-320-144-19-14-22-40-8-58 14-18 40-22 59-8 83 65 175 106 269 126v84z m-193-288c60 47 126 78 193 95v-86c-49-15-98-40-142-75-18-14-45-10-59 8-14 18-10 44 8 58z m436 9v86c68-17 134-48 194-95 18-14 21-40 7-58-14-18-40-22-58-8-45 35-93 60-143 75z m-311-150c22 17 45 31 68 41v-36c0-18 4-36 12-51-10-6-19-12-29-19-18-15-44-11-58 7-14 18-11 44 7 58z m300-46c7 15 11 33 11 51v36c24-10 47-24 68-41 18-14 22-40 8-58-15-18-41-22-59-7-9 7-19 13-28 19z m-41-128c0-39-31-70-69-70-39 0-70 31-70 70 0 38 31 69 70 69 38 0 69-31 69-69z" horiz-adv-x="1042" />

<glyph glyph-name="window-terminal" unicode="&#xe8ae;" d="M462 296c16-16 16-42 0-59l-84-83c-16-16-42-16-58 0-17 16-17 43 0 59l53 54-53 53c-17 17-17 43 0 59 16 16 42 16 58 0l84-83v0z m220-71h-125c-23 0-41-19-41-42 0-23 18-41 41-41h125c23 0 42 18 42 41 0 23-19 42-42 42z m250 327v-404c0-22 0-41-1-56-1-16-4-33-13-49-12-23-31-42-54-55-16-7-32-10-49-12-15-1-34-1-56-1h-487c-22 0-41 0-56 1-16 1-33 4-49 12-24 13-42 32-54 55-8 16-11 32-13 49-1 15-1 34-1 56v404c0 22 0 40 1 56 1 17 4 33 13 49 12 23 31 42 54 55 16 7 32 10 49 12 15 1 35 1 57 1h486c22 0 41 0 57-1 17-1 33-4 49-12 23-13 42-32 54-55 8-16 11-32 13-49 1-15 1-34 1-56l-1 0z m-83-2c0 3 0 5 0 8h-667c0-2 0-5 0-8v-400c0-24 0-40 1-51 1-12 3-16 4-18 4-8 10-14 18-18 2-1 6-3 18-4 11 0 27 0 51 0h484c24 0 39 0 51 0 11 1 15 3 17 4 8 4 15 10 19 18 1 2 2 6 3 18 1 11 1 27 1 51v400z" horiz-adv-x="1042" />

<glyph glyph-name="building" unicode="&#xe8af;" d="M353 502v72c0 13 11 24 24 24h72c13 0 24-11 24-24v-72c0-14-11-24-24-24h-72c-13 0-24 10-24 24z m96-144h-72c-14 0-25-11-25-24v-72c0-14 11-24 25-24h72c13 0 24 10 24 24v72c0 13-11 24-24 24z m239 240h-72c-13 0-24-11-24-24v-72c0-14 11-24 24-24h72c14 0 24 10 24 24v72c0 13-10 24-24 24z m0-240h-72c-13 0-24-11-24-24v-72c0-14 11-24 24-24h72c14 0 24 10 24 24v72c0 13-10 24-24 24z m232-426c0-22-18-40-40-40h-695c-22 0-40 18-40 40 0 22 18 40 40 40h15v718c0 18 0 34 1 48 2 15 7 32 22 47 14 15 32 20 47 22 14 1 30 1 47 1h431c17 0 34 0 47-1 16-2 33-7 48-22 14-15 19-32 22-47 1-14 1-30 1-48v-719h15c22 0 40-18 40-40l-1 1z m-134 756c0 20 0 31-1 39-8 1-19 1-38 1h-427c-20 0-31 0-39-1-1-8-1-19-1-39v-716h191v139c0 13 11 24 24 24h77c13 0 24-11 24-24v-139h191v716h-1z" horiz-adv-x="1042" />

<glyph glyph-name="conversations-add" unicode="&#xe8b0;" d="M572 405c0-12-11-23-23-23h-46v-46c0-13-11-23-24-23-12 0-23 10-23 23v46h-46c-13 0-23 11-23 23 0 13 10 23 23 23h46v47c0 12 11 23 23 23 13 0 24-11 24-23v-47h46c12 0 23-10 23-23z m447-3c0-244-224-443-500-443-30 0-59 3-87 7 0 0-132-123-282-109-22 2-32 34-10 47 100 62 89 137 89 137-128 81-210 212-210 361 0 244 224 442 500 442 276 0 500-198 500-442z m-232 62c0 40 0 61-11 69l-2 1-3 1c-12 6-26-5-56-27l-60-42v19c0 42 0 63-11 77-2 2-4 4-7 6-14 12-35 12-77 12h-161c-41 0-62 0-76-12-3-2-5-4-7-6-11-14-11-35-11-77v-161c0-42 0-63 11-77 1-1 2-2 3-3 1-1 3-2 4-3 5-5 11-7 20-9 13-3 31-3 56-3h161c42 0 63 0 77 12 3 2 5 4 7 6 4 6 7 13 9 21 2 13 2 30 2 55v19l60-42c30-22 44-32 56-27 2 1 3 2 4 3 11 8 11 28 11 68v119l1 1z" horiz-adv-x="1042" />

<glyph glyph-name="conversations" unicode="&#xe8b1;" d="M1012 402c0-244-224-443-500-443-29 0-59 3-87 7 0 0-132-123-281-109-22 2-32 34-11 47 100 62 89 137 89 137-127 81-210 212-210 361 0 244 224 442 500 442 276 0 500-198 500-442z m-232 62c0 40 0 61-10 69l-2 1-3 1c-12 6-27-5-57-27l-59-42v19c0 42 0 63-12 77-2 2-4 4-6 6-14 12-35 12-77 12h-161c-42 0-62 0-76-12-3-2-5-4-7-6-12-14-12-35-12-77v-161c0-42 0-63 12-77 1-1 2-2 3-3 1-1 3-2 4-3 5-5 11-7 20-9 13-3 30-3 56-3h161c42 0 63 0 77 12 2 2 4 4 6 6 5 6 8 13 9 21 3 13 3 30 3 55v19l59-42c30-22 45-32 57-27 2 1 3 2 4 3 11 8 11 28 11 68v119l0 1z" horiz-adv-x="1042" />
</font>
</defs>
</svg>
