<svg width="213" height="46" viewBox="0 0 213 46" fill="none" xmlns="http://www.w3.org/2000/svg">
<g clip-path="url(#clip0_1913_19496)">
<path fill-rule="evenodd" clip-rule="evenodd" d="M123.316 5.68691C121.692 0.535782 114.174 0.582189 111.9 0.907037C104.336 1.88158 103.037 7.45037 103.408 11.395C100.252 10.0027 97.9778 6.9863 97.8386 1.51033C97.8386 1.51033 92.3162 1.13907 92.8267 6.56864C93.1979 10.4204 98.3955 14.5042 104.893 15.618C104.893 15.618 109.673 24.8065 110.183 26.9876C111.111 31.0714 108.837 35.248 103.361 34.9695C94.915 34.5519 92.409 22.5325 101.134 21.326C98.1634 15.4787 88.4645 16.6389 88.0468 25.1777C87.722 32.0459 94.5901 39.471 104.058 39.3782C112.968 39.2853 116.773 35.1552 117.608 30.2825C118.471 25.3368 115.892 21.7919 113.64 18.6967C112.743 17.4645 111.898 16.3035 111.343 15.1539C114.313 15.0147 125.451 12.6015 123.316 5.68691ZM109.858 12.3231C108.698 8.74975 109.58 4.75879 114.313 3.96988C117.33 3.4594 118.49 5.68691 118.444 6.9863C118.397 9.67789 114.174 11.9054 109.858 12.3231ZM137.842 31.9534C141.508 33.16 146.566 16.0359 145.127 11.7665C145.139 11.7665 145.162 11.7653 145.193 11.7635L145.197 11.7633C145.905 11.7234 151.057 11.4335 150.835 18.1242C150.557 23.8322 144.339 36.9189 137.517 36.9189C135.289 36.9189 131.855 36.7333 131.02 30.5612C129.906 32.6031 127.261 36.9189 124.244 36.9189C121.367 36.9189 118.212 34.9698 119.557 26.7094C120.857 18.5883 124.198 12.9266 124.709 12.277C125.173 11.7201 125.915 11.7201 126.704 12.0913C127.586 12.509 128.375 13.1123 129.024 13.8548C129.581 14.5509 129.674 14.9221 129.349 15.5718C128.885 16.5464 123.038 31.2109 125.683 31.9534C127.355 32.4094 130.521 24.7595 132.975 18.8283L132.982 18.8109L132.983 18.8099C134.272 15.6957 135.364 13.0581 135.939 12.3234C136.357 11.7665 137.053 11.7665 137.795 12.1377C138.677 12.5554 139.419 13.1587 140.023 13.9012C140.58 14.5973 140.626 14.9685 140.348 15.6182C140.348 15.6182 134.454 30.8396 137.842 31.9534ZM64.0087 11.7662C66.1898 16.8245 59.136 32.4635 56.2587 31.9066C53.5672 31.3962 56.63 19.9337 58.7183 15.6643C58.9967 15.0146 58.9503 14.6434 58.3935 13.9937C57.7438 13.2512 56.9548 12.6479 56.0731 12.2303C55.2842 11.859 54.5417 11.859 54.0776 12.4159C53.5672 13.0656 50.3187 17.5206 49.437 26.4307C48.5088 35.712 53.0567 37.5219 55.8875 36.8722C63.8694 35.0159 69.9023 22.4861 70.0415 18.2631C70.1343 11.5342 64.2871 11.7198 64.0087 11.7662ZM50.3182 14.3652C50.6431 14.7365 50.6895 15.0613 50.5038 15.4326C47.8123 20.8621 45.2597 30.0971 45.9094 36.9188C38.6893 35.8046 39.9443 28.9118 40.3428 26.7233L40.3605 26.6263C40.37 26.5733 40.379 26.5236 40.387 26.4774C41.959 17.8955 44.6588 13.9032 45.5312 12.6131L45.5342 12.6086C45.6134 12.4915 45.6773 12.3969 45.7238 12.3233C46.0487 11.8129 46.5129 11.8129 47.1161 12.0449C48.3691 12.509 49.4829 13.3443 50.3182 14.3652ZM155.848 12.3695C156.173 11.8591 156.637 11.8591 157.24 12.0911C158.493 12.5552 159.607 13.3441 160.442 14.4114C160.767 14.7827 160.813 15.1075 160.628 15.4788C157.936 20.9084 155.384 30.1433 156.034 36.9651C148.813 35.8508 150.068 28.958 150.467 26.7695C150.483 26.6793 150.498 26.5971 150.511 26.5236C152.083 17.9416 154.783 13.9492 155.655 12.6592L155.656 12.6584C155.736 12.5397 155.801 12.4439 155.848 12.3695ZM70.7376 21.5116C74.4037 13.1584 79.0908 11.7198 81.6896 11.9518C85.0309 12.2302 89.4859 15.4787 87.7688 20.6298C86.2838 24.9921 80.8543 28.4726 75.8888 26.5235C75.2855 34.459 83.0818 33.2524 85.4021 28.0085C89.3931 31.3498 83.1746 36.7329 77.977 36.8722C71.2481 37.0578 66.8859 30.1432 70.7376 21.5116ZM76.028 24.7136C77.6522 18.3095 81.1327 15.2467 82.3393 15.1074C85.8198 14.6898 81.2719 25.5025 76.028 24.7136ZM186.987 28.0549C184.666 33.2989 176.081 34.6447 177.381 25.4561C178.216 19.5161 182.625 15.4787 184.249 15.1075C187.265 14.4114 185.548 18.1239 183.553 21.2331C189.168 25.0849 193.53 11.9518 183.274 11.9518C180.675 11.9518 175.803 13.2048 172.322 21.558C168.656 30.2824 172.833 37.1042 179.562 36.965C184.713 36.7794 190.931 31.3962 186.987 28.0549ZM172.09 12.7872H175.664C175.664 12.7872 174.596 16.639 170.559 16.639C168.563 22.0686 167.264 28.4727 167.31 36.8723C159.885 35.7264 161.378 28.4691 161.773 26.5466L161.774 26.5462L161.788 26.4772C162.391 23.1359 163.18 19.8875 164.155 16.639H163.18C163.041 16.639 162.902 16.5926 162.762 16.4998C162.67 16.407 162.577 16.2677 162.53 16.1285C162.391 15.6645 162.345 15.154 162.438 14.6435C162.484 14.1794 162.716 13.7154 162.994 13.2977C163.319 12.7872 163.644 12.7408 164.665 12.7408H165.408C167.682 6.56873 169.77 3.69152 170.559 2.90261C170.791 2.67058 171.023 2.53136 171.348 2.43854C171.673 2.39214 171.997 2.39214 172.276 2.48495C173.529 2.94902 174.643 3.78434 175.478 4.80528C175.803 5.17654 175.849 5.50138 175.664 5.87263C174.411 8.10015 173.204 10.3741 172.09 12.7872ZM209.308 12.4162C203.359 11.0207 198.891 20.9304 197.011 25.1032L197.01 25.1039L197.009 25.1054C196.514 26.2042 196.198 26.9047 196.082 26.8951C195.618 26.8487 200.212 11.5809 203.832 5.91927C204.11 5.50161 204.018 5.17676 203.739 4.8055C203.136 3.97018 202.3 3.27408 201.372 2.85642C200.119 2.20673 199.516 2.25314 198.82 3.18127C197.706 4.57347 192.926 12.277 189.956 27.5912C189.028 32.4639 189.863 36.7797 193.483 37.0117C195.968 37.1738 198.924 31.2376 201.41 26.2463C203.195 22.6612 204.738 19.5628 205.688 19.5628C206.349 19.692 205.908 21.45 205.318 23.8046C204 29.064 201.936 37.3002 209.726 37.0117C208.986 33.6736 210.006 29.2346 210.97 25.0383C212.365 18.9677 213.643 13.404 209.308 12.4162ZM25.0284 26.4966L23.265 30.8588C24.6078 31.5247 26.1099 32.421 27.7163 33.3796L27.7172 33.3801C32.717 36.3637 38.7282 39.9508 44.1016 39.0728C43.6375 44.2704 37.3726 46.5907 33.1032 43.6671C26.1422 38.9336 21.0375 34.8034 21.0375 34.8034C19.4132 36.6597 14.9118 40.4186 8.04362 39.0728C3.35653 38.1447 -0.263186 35.0354 0.247287 31.5085C0.664946 28.9562 4.28466 23.2482 16.9537 27.8424L17.9282 25.1972C0.432913 20.5102 0.432914 7.46988 7.9044 5.38158C8.83253 5.05673 9.85348 4.96393 10.828 5.10314L10.827 5.10815C10.4991 6.7946 8.47201 17.2196 19.2276 21.5311C19.3168 21.3081 19.8135 19.9485 20.4805 18.1224L20.4933 18.0874L20.494 18.0853L20.4944 18.0843L20.5064 18.0514L20.5069 18.0501C21.2236 16.0881 22.1307 13.6047 22.9401 11.4145C26.1886 2.59719 31.3397 1.11218 33.7065 0.972958C38.2079 0.740923 42.711 4.04687 43.0342 9.46536C43.3574 14.8839 39.7393 26.4966 25.0284 26.4966ZM35.6092 4.49986C33.6137 4.09276 32.2215 6.913 31.479 8.90848C30.6436 11.0896 26.3278 22.9697 26.3278 22.9697C32.4999 22.9697 37.4166 15.5805 37.6046 8.72285C37.6527 6.96998 37.6046 4.90697 35.6092 4.49986ZM6.18735 33.04C5.95532 31.2765 7.9044 27.2391 15.6079 31.3693C13.6588 37.1237 6.65142 36.6597 6.18735 33.04ZM53.7528 8.10013C55.0986 6.42949 55.0522 4.15557 53.66 3.04181C52.2678 1.88165 50.0402 2.29931 48.6945 3.92354C47.3487 5.59417 47.3951 7.8681 48.7873 8.98186C50.1795 10.0956 52.407 9.77077 53.7528 8.10013ZM163.783 3.04181C165.175 4.15557 165.222 6.42949 163.876 8.10013C162.53 9.77077 160.303 10.1885 158.91 8.98186C157.518 7.8681 157.472 5.59417 158.817 3.92354C160.163 2.29931 162.391 1.88165 163.783 3.04181Z" fill="#2D74FF"/>
</g>
<defs>
<clipPath id="clip0_1913_19496">
<rect width="213" height="45" fill="white" transform="translate(0 0.0717773)"/>
</clipPath>
</defs>
</svg>
